<svg width="210" height="210" viewBox="0 0 210 210" fill="none" xmlns="http://www.w3.org/2000/svg">
<path fill-rule="evenodd" clip-rule="evenodd" d="M87.5 43.75C73.0026 43.75 61.25 55.5026 61.25 70C61.25 84.4974 73.0026 96.25 87.5 96.25C101.998 96.25 113.75 84.4974 113.75 70C113.75 55.5026 101.998 43.75 87.5 43.75ZM118.177 101.192C126.247 93.2558 131.25 82.212 131.25 70C131.25 45.8376 111.662 26.25 87.5 26.25C63.3376 26.25 43.75 45.8376 43.75 70C43.75 82.2349 48.7721 93.2969 56.8675 101.237C32.8074 109.695 17.5 127.977 17.5 148.75C17.5 153.583 21.4175 157.5 26.25 157.5C31.0824 157.5 35 153.583 35 148.75C35 133.613 51.8939 113.75 87.5 113.75C101.191 113.75 112.358 116.812 120.76 121.421C124.996 123.746 130.315 122.196 132.64 117.959C134.964 113.722 133.414 108.403 129.177 106.079C125.765 104.207 122.093 102.568 118.177 101.192ZM133.813 133.813C137.23 130.396 142.77 130.396 146.187 133.813L166.25 153.876L186.313 133.813C189.73 130.396 195.27 130.396 198.687 133.813C202.104 137.23 202.104 142.77 198.687 146.187L178.624 166.25L198.687 186.313C202.104 189.73 202.104 195.27 198.687 198.687C195.27 202.104 189.73 202.104 186.313 198.687L166.25 178.624L146.187 198.687C142.77 202.104 137.23 202.104 133.813 198.687C130.396 195.27 130.396 189.73 133.813 186.313L153.876 166.25L133.813 146.187C130.396 142.77 130.396 137.23 133.813 133.813Z" fill="black"/>
</svg>
