<svg width="65" height="65" viewBox="0 0 65 65" fill="none" xmlns="http://www.w3.org/2000/svg">
<g clip-path="url(#clip0_640_16412)">
<path fill-rule="evenodd" clip-rule="evenodd" d="M65 59.0757L60.4045 63.4524L42.0193 45.9426L46.6148 41.5659L65 59.0757ZM22.75 38.6905C13.7898 38.6905 6.50002 31.7478 6.50002 23.2143C6.50002 14.6807 13.7898 7.73808 22.75 7.73808C31.7103 7.73808 39 14.6807 39 23.2143C39 31.7478 31.7103 38.6905 22.75 38.6905ZM22.75 1.54761C10.1855 1.54761 0 11.2481 0 23.2143C0 35.1805 10.1855 44.8809 22.75 44.8809C35.3145 44.8809 45.5 35.1805 45.5 23.2143C45.5 11.2481 35.3145 1.54761 22.75 1.54761Z" fill="black"/>
</g>
<defs>
<clipPath id="clip0_640_16412">
<rect width="65" height="65" fill="white"/>
</clipPath>
</defs>
</svg>
