<svg width="312" height="94" viewBox="0 0 312 94" fill="none" xmlns="http://www.w3.org/2000/svg">
<rect width="312" height="94" rx="11" fill="#F61212"/>
<path d="M167.554 52.16C166.679 52.16 165.842 52.0373 165.042 51.792C164.242 51.536 163.607 51.2107 163.138 50.816L163.858 49.2C164.306 49.552 164.861 49.8453 165.522 50.08C166.183 50.3147 166.861 50.432 167.554 50.432C168.141 50.432 168.615 50.368 168.978 50.24C169.341 50.112 169.607 49.9413 169.778 49.728C169.949 49.504 170.034 49.2533 170.034 48.976C170.034 48.6347 169.911 48.3627 169.666 48.16C169.421 47.9467 169.101 47.7813 168.706 47.664C168.322 47.536 167.89 47.4187 167.41 47.312C166.941 47.2053 166.466 47.0827 165.986 46.944C165.517 46.7947 165.085 46.608 164.69 46.384C164.306 46.1493 163.991 45.84 163.746 45.456C163.501 45.072 163.378 44.5813 163.378 43.984C163.378 43.376 163.538 42.8213 163.858 42.32C164.189 41.808 164.685 41.4027 165.346 41.104C166.018 40.7947 166.866 40.64 167.89 40.64C168.562 40.64 169.229 40.7253 169.89 40.896C170.551 41.0667 171.127 41.312 171.618 41.632L170.962 43.248C170.461 42.9493 169.943 42.7307 169.41 42.592C168.877 42.4427 168.365 42.368 167.874 42.368C167.298 42.368 166.829 42.4373 166.466 42.576C166.114 42.7147 165.853 42.896 165.682 43.12C165.522 43.344 165.442 43.6 165.442 43.888C165.442 44.2293 165.559 44.5067 165.794 44.72C166.039 44.9227 166.354 45.0827 166.738 45.2C167.133 45.3173 167.57 45.4347 168.05 45.552C168.53 45.6587 169.005 45.7813 169.474 45.92C169.954 46.0587 170.386 46.24 170.77 46.464C171.165 46.688 171.479 46.992 171.714 47.376C171.959 47.76 172.082 48.2453 172.082 48.832C172.082 49.4293 171.917 49.984 171.586 50.496C171.266 50.9973 170.77 51.4027 170.098 51.712C169.426 52.0107 168.578 52.16 167.554 52.16ZM177.793 52.112C176.918 52.112 176.139 51.9253 175.457 51.552C174.774 51.168 174.235 50.6453 173.841 49.984C173.446 49.3227 173.249 48.5707 173.249 47.728C173.249 46.8747 173.446 46.1227 173.841 45.472C174.235 44.8107 174.774 44.2933 175.457 43.92C176.139 43.5467 176.918 43.36 177.793 43.36C178.678 43.36 179.462 43.5467 180.145 43.92C180.838 44.2933 181.377 44.8053 181.761 45.456C182.155 46.1067 182.353 46.864 182.353 47.728C182.353 48.5707 182.155 49.3227 181.761 49.984C181.377 50.6453 180.838 51.168 180.145 51.552C179.462 51.9253 178.678 52.112 177.793 52.112ZM177.793 50.4C178.283 50.4 178.721 50.2933 179.105 50.08C179.489 49.8667 179.787 49.5573 180.001 49.152C180.225 48.7467 180.337 48.272 180.337 47.728C180.337 47.1733 180.225 46.6987 180.001 46.304C179.787 45.8987 179.489 45.5893 179.105 45.376C178.721 45.1627 178.289 45.056 177.809 45.056C177.318 45.056 176.881 45.1627 176.497 45.376C176.123 45.5893 175.825 45.8987 175.601 46.304C175.377 46.6987 175.265 47.1733 175.265 47.728C175.265 48.272 175.377 48.7467 175.601 49.152C175.825 49.5573 176.123 49.8667 176.497 50.08C176.881 50.2933 177.313 50.4 177.793 50.4ZM184.265 52V40.128H186.265V52H184.265ZM192.506 52.112C191.685 52.112 190.943 51.9307 190.282 51.568C189.631 51.1947 189.119 50.6827 188.746 50.032C188.373 49.3813 188.186 48.6133 188.186 47.728C188.186 46.8427 188.373 46.0747 188.746 45.424C189.119 44.7733 189.631 44.2667 190.282 43.904C190.943 43.5413 191.685 43.36 192.506 43.36C193.221 43.36 193.861 43.52 194.426 43.84C194.991 44.1493 195.439 44.624 195.77 45.264C196.101 45.904 196.266 46.7253 196.266 47.728C196.266 48.72 196.106 49.5413 195.786 50.192C195.466 50.832 195.023 51.312 194.458 51.632C193.893 51.952 193.242 52.112 192.506 52.112ZM192.746 50.4C193.226 50.4 193.653 50.2933 194.026 50.08C194.41 49.8667 194.714 49.5573 194.938 49.152C195.173 48.7467 195.29 48.272 195.29 47.728C195.29 47.1733 195.173 46.6987 194.938 46.304C194.714 45.8987 194.41 45.5893 194.026 45.376C193.653 45.1627 193.226 45.056 192.746 45.056C192.266 45.056 191.834 45.1627 191.45 45.376C191.077 45.5893 190.773 45.8987 190.538 46.304C190.314 46.6987 190.202 47.1733 190.202 47.728C190.202 48.272 190.314 48.7467 190.538 49.152C190.773 49.5573 191.077 49.8667 191.45 50.08C191.834 50.2933 192.266 50.4 192.746 50.4ZM195.338 52V49.984L195.418 47.712L195.258 45.44V40.128H197.242V52H195.338ZM208.136 52.112C207.262 52.112 206.483 51.9253 205.8 51.552C205.118 51.168 204.579 50.6453 204.184 49.984C203.79 49.3227 203.592 48.5707 203.592 47.728C203.592 46.8747 203.79 46.1227 204.184 45.472C204.579 44.8107 205.118 44.2933 205.8 43.92C206.483 43.5467 207.262 43.36 208.136 43.36C209.022 43.36 209.806 43.5467 210.488 43.92C211.182 44.2933 211.72 44.8053 212.104 45.456C212.499 46.1067 212.696 46.864 212.696 47.728C212.696 48.5707 212.499 49.3227 212.104 49.984C211.72 50.6453 211.182 51.168 210.488 51.552C209.806 51.9253 209.022 52.112 208.136 52.112ZM208.136 50.4C208.627 50.4 209.064 50.2933 209.448 50.08C209.832 49.8667 210.131 49.5573 210.344 49.152C210.568 48.7467 210.68 48.272 210.68 47.728C210.68 47.1733 210.568 46.6987 210.344 46.304C210.131 45.8987 209.832 45.5893 209.448 45.376C209.064 45.1627 208.632 45.056 208.152 45.056C207.662 45.056 207.224 45.1627 206.84 45.376C206.467 45.5893 206.168 45.8987 205.944 46.304C205.72 46.6987 205.608 47.1733 205.608 47.728C205.608 48.272 205.72 48.7467 205.944 49.152C206.168 49.5573 206.467 49.8667 206.84 50.08C207.224 50.2933 207.656 50.4 208.136 50.4ZM218.225 52.112C217.5 52.112 216.86 51.9787 216.305 51.712C215.75 51.4347 215.318 51.0187 215.009 50.464C214.7 49.8987 214.545 49.1893 214.545 48.336V43.456H216.545V48.064C216.545 48.832 216.716 49.408 217.057 49.792C217.409 50.1653 217.905 50.352 218.545 50.352C219.014 50.352 219.42 50.256 219.761 50.064C220.113 49.872 220.385 49.584 220.577 49.2C220.78 48.816 220.881 48.3413 220.881 47.776V43.456H222.881V52H220.977V49.696L221.313 50.4C221.025 50.9547 220.604 51.3813 220.049 51.68C219.494 51.968 218.886 52.112 218.225 52.112ZM228.716 52.112C227.777 52.112 227.052 51.872 226.539 51.392C226.028 50.9013 225.772 50.1813 225.772 49.232V41.568H227.772V49.184C227.772 49.5893 227.873 49.904 228.076 50.128C228.289 50.352 228.582 50.464 228.956 50.464C229.404 50.464 229.777 50.3467 230.076 50.112L230.636 51.536C230.401 51.728 230.113 51.872 229.772 51.968C229.43 52.064 229.078 52.112 228.716 52.112ZM224.364 45.12V43.52H230.06V45.12H224.364ZM232.409 48.288L232.025 40.8H234.393L233.993 48.288H232.409ZM233.209 52.112C232.835 52.112 232.526 51.9893 232.281 51.744C232.035 51.4987 231.913 51.2053 231.913 50.864C231.913 50.5227 232.035 50.2347 232.281 50C232.526 49.7547 232.835 49.632 233.209 49.632C233.582 49.632 233.886 49.7547 234.121 50C234.355 50.2347 234.473 50.5227 234.473 50.864C234.473 51.2053 234.355 51.4987 234.121 51.744C233.886 51.9893 233.582 52.112 233.209 52.112Z" fill="black"/>
<g clip-path="url(#clip0_47_24202)">
<path d="M97.5 28.1875H49.6875V53.5H97.5V28.1875Z" stroke="black" stroke-width="1.875" stroke-linecap="round" stroke-linejoin="round"/>
<path d="M79.3896 32.875H78.1104C77.4281 32.875 76.875 33.4281 76.875 34.1104V37.2646C76.875 37.9469 77.4281 38.5 78.1104 38.5H79.3896C80.0719 38.5 80.625 37.9469 80.625 37.2646V34.1104C80.625 33.4281 80.0719 32.875 79.3896 32.875Z" stroke="black" stroke-width="1.875" stroke-linecap="round" stroke-linejoin="round"/>
<path d="M72.8271 42.25H71.5479C70.8656 42.25 70.3125 42.8031 70.3125 43.4854V46.6396C70.3125 47.3219 70.8656 47.875 71.5479 47.875H72.8271C73.5094 47.875 74.0625 47.3219 74.0625 46.6396V43.4854C74.0625 42.8031 73.5094 42.25 72.8271 42.25Z" stroke="black" stroke-width="1.875" stroke-linecap="round" stroke-linejoin="round"/>
<path d="M80.625 42.25V46.6396C80.625 46.9672 80.4948 47.2815 80.2631 47.5131C80.0315 47.7448 79.7172 47.875 79.3896 47.875H78.1104C77.7828 47.875 77.4685 47.7448 77.2369 47.5131C77.0052 47.2815 76.875 46.9672 76.875 46.6396V42.25" stroke="black" stroke-width="1.875" stroke-linecap="round" stroke-linejoin="round"/>
<path d="M74.0625 32.875H70.3125V35.6875H74.0625V38.5H70.3125" stroke="black" stroke-width="1.875" stroke-linecap="round" stroke-linejoin="round"/>
<path d="M59.5312 46.9375C62.8967 46.9375 65.625 44.2092 65.625 40.8438C65.625 37.4783 62.8967 34.75 59.5312 34.75C56.1658 34.75 53.4375 37.4783 53.4375 40.8438C53.4375 44.2092 56.1658 46.9375 59.5312 46.9375Z" stroke="black" stroke-width="1.875" stroke-linecap="round" stroke-linejoin="round"/>
<path d="M71.25 53.7495V73.1874" stroke="black" stroke-width="1.875" stroke-linecap="round" stroke-linejoin="round"/>
<path d="M75.9375 73.1875V53.7788" stroke="black" stroke-width="1.875" stroke-linecap="round" stroke-linejoin="round"/>
<path d="M61.875 38.5L57.1875 43.1875" stroke="black" stroke-width="1.875" stroke-linecap="round" stroke-linejoin="round"/>
<path d="M57.1875 38.5L61.875 43.1875" stroke="black" stroke-width="1.875" stroke-linecap="round" stroke-linejoin="round"/>
<path d="M85.3062 20.8403L82.5425 23.6042" stroke="black" stroke-width="1.875" stroke-linecap="round" stroke-linejoin="round"/>
<path d="M82.5425 20.8403L85.3062 23.6042" stroke="black" stroke-width="1.875" stroke-linecap="round" stroke-linejoin="round"/>
<path d="M83.4375 32.875V38.5H86.25" stroke="black" stroke-width="1.875" stroke-linecap="round" stroke-linejoin="round"/>
<path d="M89.0625 32.875H91.6399C91.7939 32.875 91.9463 32.9053 92.0886 32.9643C92.2309 33.0232 92.3602 33.1096 92.469 33.2185C92.5779 33.3273 92.6643 33.4566 92.7232 33.5989C92.7822 33.7412 92.8125 33.8936 92.8125 34.0476V37.3275C92.8125 37.6385 92.6889 37.9367 92.469 38.1566C92.2491 38.3765 91.9509 38.5 91.6399 38.5H89.0625V32.875Z" stroke="black" stroke-width="1.875" stroke-linecap="round" stroke-linejoin="round"/>
<path d="M85.3125 47.875V42.25" stroke="black" stroke-width="1.875" stroke-linecap="round" stroke-linejoin="round"/>
<path d="M83.4375 42.25H87.1875" stroke="black" stroke-width="1.875" stroke-linecap="round" stroke-linejoin="round"/>
</g>
<defs>
<clipPath id="clip0_47_24202">
<rect width="60" height="60" fill="white" transform="translate(45 16)"/>
</clipPath>
</defs>
</svg>
