<svg width="940" height="644" viewBox="0 0 940 644" fill="none" xmlns="http://www.w3.org/2000/svg">
<rect width="940" height="644" rx="20" fill="#E1E1EC"/>
<path d="M186.788 90V60.6H189.896V87.312H206.36V90H186.788ZM224.708 90V85.128L224.582 84.33V76.182C224.582 74.306 224.05 72.864 222.986 71.856C221.95 70.848 220.396 70.344 218.324 70.344C216.896 70.344 215.538 70.582 214.25 71.058C212.962 71.534 211.87 72.164 210.974 72.948L209.63 70.722C210.75 69.77 212.094 69.042 213.662 68.538C215.23 68.006 216.882 67.74 218.618 67.74C221.474 67.74 223.672 68.454 225.212 69.882C226.78 71.282 227.564 73.424 227.564 76.308V90H224.708ZM217.106 90.21C215.454 90.21 214.012 89.944 212.78 89.412C211.576 88.852 210.652 88.096 210.008 87.144C209.364 86.164 209.042 85.044 209.042 83.784C209.042 82.636 209.308 81.6 209.84 80.676C210.4 79.724 211.296 78.968 212.528 78.408C213.788 77.82 215.468 77.526 217.568 77.526H225.17V79.752H217.652C215.524 79.752 214.04 80.13 213.2 80.886C212.388 81.642 211.982 82.58 211.982 83.7C211.982 84.96 212.472 85.968 213.452 86.724C214.432 87.48 215.804 87.858 217.568 87.858C219.248 87.858 220.69 87.48 221.894 86.724C223.126 85.94 224.022 84.82 224.582 83.364L225.254 85.422C224.694 86.878 223.714 88.04 222.314 88.908C220.942 89.776 219.206 90.21 217.106 90.21ZM253.628 90.21C251.556 90.21 249.96 89.65 248.84 88.53C247.72 87.41 247.16 85.828 247.16 83.784V63.078H250.142V83.616C250.142 84.904 250.464 85.898 251.108 86.598C251.78 87.298 252.732 87.648 253.964 87.648C255.28 87.648 256.372 87.27 257.24 86.514L258.29 88.656C257.702 89.188 256.988 89.58 256.148 89.832C255.336 90.084 254.496 90.21 253.628 90.21ZM243.212 70.428V67.95H256.862V70.428H243.212ZM263.719 90V67.95H266.575V73.956L266.281 72.906C266.897 71.226 267.933 69.952 269.389 69.084C270.845 68.188 272.651 67.74 274.807 67.74V70.638C274.695 70.638 274.583 70.638 274.471 70.638C274.359 70.61 274.247 70.596 274.135 70.596C271.811 70.596 269.991 71.31 268.675 72.738C267.359 74.138 266.701 76.14 266.701 78.744V90H263.719ZM292.425 90V85.128L292.299 84.33V76.182C292.299 74.306 291.767 72.864 290.703 71.856C289.667 70.848 288.113 70.344 286.041 70.344C284.613 70.344 283.255 70.582 281.967 71.058C280.679 71.534 279.587 72.164 278.691 72.948L277.347 70.722C278.467 69.77 279.811 69.042 281.379 68.538C282.947 68.006 284.599 67.74 286.335 67.74C289.191 67.74 291.389 68.454 292.929 69.882C294.497 71.282 295.281 73.424 295.281 76.308V90H292.425ZM284.823 90.21C283.171 90.21 281.729 89.944 280.497 89.412C279.293 88.852 278.369 88.096 277.725 87.144C277.081 86.164 276.759 85.044 276.759 83.784C276.759 82.636 277.025 81.6 277.557 80.676C278.117 79.724 279.013 78.968 280.245 78.408C281.505 77.82 283.185 77.526 285.285 77.526H292.887V79.752H285.369C283.241 79.752 281.757 80.13 280.917 80.886C280.105 81.642 279.699 82.58 279.699 83.7C279.699 84.96 280.189 85.968 281.169 86.724C282.149 87.48 283.521 87.858 285.285 87.858C286.965 87.858 288.407 87.48 289.611 86.724C290.843 85.94 291.739 84.82 292.299 83.364L292.971 85.422C292.411 86.878 291.431 88.04 290.031 88.908C288.659 89.776 286.923 90.21 284.823 90.21ZM305.733 84.288L305.817 80.466L319.551 67.95H323.205L313.503 77.232L311.823 78.66L305.733 84.288ZM303.381 90V58.836H306.363V90H303.381ZM320.475 90L311.277 78.534L313.209 76.224L324.129 90H320.475ZM342.013 90V85.128L341.887 84.33V76.182C341.887 74.306 341.355 72.864 340.291 71.856C339.255 70.848 337.701 70.344 335.629 70.344C334.201 70.344 332.843 70.582 331.555 71.058C330.267 71.534 329.175 72.164 328.279 72.948L326.935 70.722C328.055 69.77 329.399 69.042 330.967 68.538C332.535 68.006 334.187 67.74 335.923 67.74C338.779 67.74 340.977 68.454 342.517 69.882C344.085 71.282 344.869 73.424 344.869 76.308V90H342.013ZM334.411 90.21C332.759 90.21 331.317 89.944 330.085 89.412C328.881 88.852 327.957 88.096 327.313 87.144C326.669 86.164 326.347 85.044 326.347 83.784C326.347 82.636 326.613 81.6 327.145 80.676C327.705 79.724 328.601 78.968 329.833 78.408C331.093 77.82 332.773 77.526 334.873 77.526H342.475V79.752H334.957C332.829 79.752 331.345 80.13 330.505 80.886C329.693 81.642 329.287 82.58 329.287 83.7C329.287 84.96 329.777 85.968 330.757 86.724C331.737 87.48 333.109 87.858 334.873 87.858C336.553 87.858 337.995 87.48 339.199 86.724C340.431 85.94 341.327 84.82 341.887 83.364L342.559 85.422C341.999 86.878 341.019 88.04 339.619 88.908C338.247 89.776 336.511 90.21 334.411 90.21ZM352.969 90V58.836H355.951V90H352.969ZM373.236 90.21C371.108 90.21 369.19 89.734 367.482 88.782C365.802 87.802 364.472 86.472 363.492 84.792C362.512 83.084 362.022 81.138 362.022 78.954C362.022 76.742 362.512 74.796 363.492 73.116C364.472 71.436 365.802 70.12 367.482 69.168C369.162 68.216 371.08 67.74 373.236 67.74C375.42 67.74 377.352 68.216 379.032 69.168C380.74 70.12 382.07 71.436 383.022 73.116C384.002 74.796 384.492 76.742 384.492 78.954C384.492 81.138 384.002 83.084 383.022 84.792C382.07 86.472 380.74 87.802 379.032 88.782C377.324 89.734 375.392 90.21 373.236 90.21ZM373.236 87.564C374.832 87.564 376.246 87.214 377.478 86.514C378.71 85.786 379.676 84.778 380.376 83.49C381.104 82.174 381.468 80.662 381.468 78.954C381.468 77.218 381.104 75.706 380.376 74.418C379.676 73.13 378.71 72.136 377.478 71.436C376.246 70.708 374.846 70.344 373.278 70.344C371.71 70.344 370.31 70.708 369.078 71.436C367.846 72.136 366.866 73.13 366.138 74.418C365.41 75.706 365.046 77.218 365.046 78.954C365.046 80.662 365.41 82.174 366.138 83.49C366.866 84.778 367.846 85.786 369.078 86.514C370.31 87.214 371.696 87.564 373.236 87.564ZM396.502 90.21C394.682 90.21 392.96 89.958 391.336 89.454C389.712 88.922 388.438 88.264 387.514 87.48L388.858 85.128C389.754 85.8 390.902 86.388 392.302 86.892C393.702 87.368 395.172 87.606 396.712 87.606C398.812 87.606 400.324 87.284 401.248 86.64C402.172 85.968 402.634 85.086 402.634 83.994C402.634 83.182 402.368 82.552 401.836 82.104C401.332 81.628 400.66 81.278 399.82 81.054C398.98 80.802 398.042 80.592 397.006 80.424C395.97 80.256 394.934 80.06 393.898 79.836C392.89 79.612 391.966 79.29 391.126 78.87C390.286 78.422 389.6 77.82 389.068 77.064C388.564 76.308 388.312 75.3 388.312 74.04C388.312 72.836 388.648 71.758 389.32 70.806C389.992 69.854 390.972 69.112 392.26 68.58C393.576 68.02 395.172 67.74 397.048 67.74C398.476 67.74 399.904 67.936 401.332 68.328C402.76 68.692 403.936 69.182 404.86 69.798L403.558 72.192C402.578 71.52 401.528 71.044 400.408 70.764C399.288 70.456 398.168 70.302 397.048 70.302C395.06 70.302 393.59 70.652 392.638 71.352C391.714 72.024 391.252 72.892 391.252 73.956C391.252 74.796 391.504 75.454 392.008 75.93C392.54 76.406 393.226 76.784 394.066 77.064C394.934 77.316 395.872 77.526 396.88 77.694C397.916 77.862 398.938 78.072 399.946 78.324C400.982 78.548 401.92 78.87 402.76 79.29C403.628 79.682 404.314 80.256 404.818 81.012C405.35 81.74 405.616 82.706 405.616 83.91C405.616 85.198 405.252 86.318 404.524 87.27C403.824 88.194 402.788 88.922 401.416 89.454C400.072 89.958 398.434 90.21 396.502 90.21ZM424.906 90V85.128L424.78 84.33V76.182C424.78 74.306 424.248 72.864 423.184 71.856C422.148 70.848 420.594 70.344 418.522 70.344C417.094 70.344 415.736 70.582 414.448 71.058C413.16 71.534 412.068 72.164 411.172 72.948L409.828 70.722C410.948 69.77 412.292 69.042 413.86 68.538C415.428 68.006 417.08 67.74 418.816 67.74C421.672 67.74 423.87 68.454 425.41 69.882C426.978 71.282 427.762 73.424 427.762 76.308V90H424.906ZM417.304 90.21C415.652 90.21 414.21 89.944 412.978 89.412C411.774 88.852 410.85 88.096 410.206 87.144C409.562 86.164 409.24 85.044 409.24 83.784C409.24 82.636 409.506 81.6 410.038 80.676C410.598 79.724 411.494 78.968 412.726 78.408C413.986 77.82 415.666 77.526 417.766 77.526H425.368V79.752H417.85C415.722 79.752 414.238 80.13 413.398 80.886C412.586 81.642 412.18 82.58 412.18 83.7C412.18 84.96 412.67 85.968 413.65 86.724C414.63 87.48 416.002 87.858 417.766 87.858C419.446 87.858 420.888 87.48 422.092 86.724C423.324 85.94 424.22 84.82 424.78 83.364L425.452 85.422C424.892 86.878 423.912 88.04 422.512 88.908C421.14 89.776 419.404 90.21 417.304 90.21ZM455.631 90.21C453.531 90.21 451.641 89.734 449.961 88.782C448.309 87.83 447.007 86.514 446.055 84.834C445.103 83.126 444.627 81.166 444.627 78.954C444.627 76.714 445.103 74.754 446.055 73.074C447.007 71.394 448.309 70.092 449.961 69.168C451.641 68.216 453.531 67.74 455.631 67.74C457.563 67.74 459.285 68.174 460.797 69.042C462.337 69.91 463.555 71.184 464.451 72.864C465.375 74.516 465.837 76.546 465.837 78.954C465.837 81.334 465.389 83.364 464.493 85.044C463.597 86.724 462.379 88.012 460.839 88.908C459.327 89.776 457.591 90.21 455.631 90.21ZM455.841 87.564C457.409 87.564 458.809 87.214 460.041 86.514C461.301 85.786 462.281 84.778 462.981 83.49C463.709 82.174 464.073 80.662 464.073 78.954C464.073 77.218 463.709 75.706 462.981 74.418C462.281 73.13 461.301 72.136 460.041 71.436C458.809 70.708 457.409 70.344 455.841 70.344C454.301 70.344 452.915 70.708 451.683 71.436C450.451 72.136 449.471 73.13 448.743 74.418C448.015 75.706 447.651 77.218 447.651 78.954C447.651 80.662 448.015 82.174 448.743 83.49C449.471 84.778 450.451 85.786 451.683 86.514C452.915 87.214 454.301 87.564 455.841 87.564ZM464.157 90V83.364L464.451 78.912L464.031 74.46V58.836H467.013V90H464.157ZM484.684 90.21C482.388 90.21 480.372 89.734 478.636 88.782C476.9 87.802 475.542 86.472 474.562 84.792C473.582 83.084 473.092 81.138 473.092 78.954C473.092 76.77 473.554 74.838 474.478 73.158C475.43 71.478 476.718 70.162 478.342 69.21C479.994 68.23 481.842 67.74 483.886 67.74C485.958 67.74 487.792 68.216 489.388 69.168C491.012 70.092 492.286 71.408 493.21 73.116C494.134 74.796 494.596 76.742 494.596 78.954C494.596 79.094 494.582 79.248 494.554 79.416C494.554 79.556 494.554 79.71 494.554 79.878H475.36V77.652H492.958L491.782 78.534C491.782 76.938 491.432 75.524 490.732 74.292C490.06 73.032 489.136 72.052 487.96 71.352C486.784 70.652 485.426 70.302 483.886 70.302C482.374 70.302 481.016 70.652 479.812 71.352C478.608 72.052 477.67 73.032 476.998 74.292C476.326 75.552 475.99 76.994 475.99 78.618V79.08C475.99 80.76 476.354 82.244 477.082 83.532C477.838 84.792 478.874 85.786 480.19 86.514C481.534 87.214 483.06 87.564 484.768 87.564C486.112 87.564 487.358 87.326 488.506 86.85C489.682 86.374 490.69 85.646 491.53 84.666L493.21 86.598C492.23 87.774 490.998 88.67 489.514 89.286C488.058 89.902 486.448 90.21 484.684 90.21ZM539.21 67.74C541.002 67.74 542.556 68.09 543.872 68.79C545.216 69.462 546.252 70.498 546.98 71.898C547.736 73.298 548.114 75.062 548.114 77.19V90H545.132V77.484C545.132 75.16 544.572 73.41 543.452 72.234C542.36 71.03 540.806 70.428 538.79 70.428C537.278 70.428 535.962 70.75 534.842 71.394C533.75 72.01 532.896 72.92 532.28 74.124C531.692 75.3 531.398 76.728 531.398 78.408V90H528.416V77.484C528.416 75.16 527.856 73.41 526.736 72.234C525.616 71.03 524.048 70.428 522.032 70.428C520.548 70.428 519.246 70.75 518.126 71.394C517.006 72.01 516.138 72.92 515.522 74.124C514.934 75.3 514.64 76.728 514.64 78.408V90H511.658V67.95H514.514V73.914L514.052 72.864C514.724 71.268 515.802 70.022 517.286 69.126C518.798 68.202 520.576 67.74 522.62 67.74C524.776 67.74 526.61 68.286 528.122 69.378C529.634 70.442 530.614 72.052 531.062 74.208L529.886 73.746C530.53 71.954 531.664 70.512 533.288 69.42C534.94 68.3 536.914 67.74 539.21 67.74ZM565.189 90.21C563.061 90.21 561.143 89.734 559.435 88.782C557.755 87.802 556.425 86.472 555.445 84.792C554.465 83.084 553.975 81.138 553.975 78.954C553.975 76.742 554.465 74.796 555.445 73.116C556.425 71.436 557.755 70.12 559.435 69.168C561.115 68.216 563.033 67.74 565.189 67.74C567.373 67.74 569.305 68.216 570.985 69.168C572.693 70.12 574.023 71.436 574.975 73.116C575.955 74.796 576.445 76.742 576.445 78.954C576.445 81.138 575.955 83.084 574.975 84.792C574.023 86.472 572.693 87.802 570.985 88.782C569.277 89.734 567.345 90.21 565.189 90.21ZM565.189 87.564C566.785 87.564 568.199 87.214 569.431 86.514C570.663 85.786 571.629 84.778 572.329 83.49C573.057 82.174 573.421 80.662 573.421 78.954C573.421 77.218 573.057 75.706 572.329 74.418C571.629 73.13 570.663 72.136 569.431 71.436C568.199 70.708 566.799 70.344 565.231 70.344C563.663 70.344 562.263 70.708 561.031 71.436C559.799 72.136 558.819 73.13 558.091 74.418C557.363 75.706 556.999 77.218 556.999 78.954C556.999 80.662 557.363 82.174 558.091 83.49C558.819 84.778 559.799 85.786 561.031 86.514C562.263 87.214 563.649 87.564 565.189 87.564ZM593.789 67.74C595.581 67.74 597.149 68.09 598.493 68.79C599.865 69.462 600.929 70.498 601.685 71.898C602.469 73.298 602.861 75.062 602.861 77.19V90H599.879V77.484C599.879 75.16 599.291 73.41 598.115 72.234C596.967 71.03 595.343 70.428 593.243 70.428C591.675 70.428 590.303 70.75 589.127 71.394C587.979 72.01 587.083 72.92 586.439 74.124C585.823 75.3 585.515 76.728 585.515 78.408V90H582.533V67.95H585.389V73.998L584.927 72.864C585.627 71.268 586.747 70.022 588.287 69.126C589.827 68.202 591.661 67.74 593.789 67.74ZM617.888 90.21C615.816 90.21 614.22 89.65 613.1 88.53C611.98 87.41 611.42 85.828 611.42 83.784V63.078H614.402V83.616C614.402 84.904 614.724 85.898 615.368 86.598C616.04 87.298 616.992 87.648 618.224 87.648C619.54 87.648 620.632 87.27 621.5 86.514L622.55 88.656C621.962 89.188 621.248 89.58 620.408 89.832C619.596 90.084 618.756 90.21 617.888 90.21ZM607.472 70.428V67.95H621.122V70.428H607.472ZM636.565 90.21C634.269 90.21 632.253 89.734 630.517 88.782C628.781 87.802 627.423 86.472 626.443 84.792C625.463 83.084 624.973 81.138 624.973 78.954C624.973 76.77 625.435 74.838 626.359 73.158C627.311 71.478 628.599 70.162 630.223 69.21C631.875 68.23 633.723 67.74 635.767 67.74C637.839 67.74 639.673 68.216 641.269 69.168C642.893 70.092 644.167 71.408 645.091 73.116C646.015 74.796 646.477 76.742 646.477 78.954C646.477 79.094 646.463 79.248 646.435 79.416C646.435 79.556 646.435 79.71 646.435 79.878H627.241V77.652H644.839L643.663 78.534C643.663 76.938 643.313 75.524 642.613 74.292C641.941 73.032 641.017 72.052 639.841 71.352C638.665 70.652 637.307 70.302 635.767 70.302C634.255 70.302 632.897 70.652 631.693 71.352C630.489 72.052 629.551 73.032 628.879 74.292C628.207 75.552 627.871 76.994 627.871 78.618V79.08C627.871 80.76 628.235 82.244 628.963 83.532C629.719 84.792 630.755 85.786 632.071 86.514C633.415 87.214 634.941 87.564 636.649 87.564C637.993 87.564 639.239 87.326 640.387 86.85C641.563 86.374 642.571 85.646 643.411 84.666L645.091 86.598C644.111 87.774 642.879 88.67 641.395 89.286C639.939 89.902 638.329 90.21 636.565 90.21ZM652.547 90V67.95H655.403V73.956L655.109 72.906C655.725 71.226 656.761 69.952 658.217 69.084C659.673 68.188 661.479 67.74 663.635 67.74V70.638C663.523 70.638 663.411 70.638 663.299 70.638C663.187 70.61 663.075 70.596 662.963 70.596C660.639 70.596 658.819 71.31 657.503 72.738C656.187 74.138 655.529 76.14 655.529 78.744V90H652.547ZM669.076 90V67.95H671.932V73.956L671.638 72.906C672.254 71.226 673.29 69.952 674.746 69.084C676.202 68.188 678.008 67.74 680.164 67.74V70.638C680.052 70.638 679.94 70.638 679.828 70.638C679.716 70.61 679.604 70.596 679.492 70.596C677.168 70.596 675.348 71.31 674.032 72.738C672.716 74.138 672.058 76.14 672.058 78.744V90H669.076ZM694.766 90.21C692.47 90.21 690.454 89.734 688.718 88.782C686.982 87.802 685.624 86.472 684.644 84.792C683.664 83.084 683.174 81.138 683.174 78.954C683.174 76.77 683.636 74.838 684.56 73.158C685.512 71.478 686.8 70.162 688.424 69.21C690.076 68.23 691.924 67.74 693.968 67.74C696.04 67.74 697.874 68.216 699.47 69.168C701.094 70.092 702.368 71.408 703.292 73.116C704.216 74.796 704.678 76.742 704.678 78.954C704.678 79.094 704.664 79.248 704.636 79.416C704.636 79.556 704.636 79.71 704.636 79.878H685.442V77.652H703.04L701.864 78.534C701.864 76.938 701.514 75.524 700.814 74.292C700.142 73.032 699.218 72.052 698.042 71.352C696.866 70.652 695.508 70.302 693.968 70.302C692.456 70.302 691.098 70.652 689.894 71.352C688.69 72.052 687.752 73.032 687.08 74.292C686.408 75.552 686.072 76.994 686.072 78.618V79.08C686.072 80.76 686.436 82.244 687.164 83.532C687.92 84.792 688.956 85.786 690.272 86.514C691.616 87.214 693.142 87.564 694.85 87.564C696.194 87.564 697.44 87.326 698.588 86.85C699.764 86.374 700.772 85.646 701.612 84.666L703.292 86.598C702.312 87.774 701.08 88.67 699.596 89.286C698.14 89.902 696.53 90.21 694.766 90.21ZM710.506 98.358C709.47 98.358 708.476 98.19 707.524 97.854C706.6 97.518 705.802 97.014 705.13 96.342L706.516 94.116C707.076 94.648 707.678 95.054 708.322 95.334C708.994 95.642 709.736 95.796 710.548 95.796C711.528 95.796 712.368 95.516 713.068 94.956C713.796 94.424 714.482 93.472 715.126 92.1L716.554 88.866L716.89 88.404L725.962 67.95H728.902L717.856 92.646C717.24 94.074 716.554 95.208 715.798 96.048C715.07 96.888 714.272 97.476 713.404 97.812C712.536 98.176 711.57 98.358 710.506 98.358ZM716.386 90.63L706.222 67.95H709.33L718.318 88.194L716.386 90.63Z" fill="black"/>
<path d="M170.104 368V342.8H172.768V365.696H186.88V368H170.104ZM198.186 368.18C196.362 368.18 194.718 367.772 193.254 366.956C191.814 366.116 190.674 364.976 189.834 363.536C188.994 362.072 188.574 360.404 188.574 358.532C188.574 356.636 188.994 354.968 189.834 353.528C190.674 352.088 191.814 350.96 193.254 350.144C194.694 349.328 196.338 348.92 198.186 348.92C200.058 348.92 201.714 349.328 203.154 350.144C204.618 350.96 205.758 352.088 206.574 353.528C207.414 354.968 207.834 356.636 207.834 358.532C207.834 360.404 207.414 362.072 206.574 363.536C205.758 364.976 204.618 366.116 203.154 366.956C201.69 367.772 200.034 368.18 198.186 368.18ZM198.186 365.912C199.554 365.912 200.766 365.612 201.822 365.012C202.878 364.388 203.706 363.524 204.306 362.42C204.93 361.292 205.242 359.996 205.242 358.532C205.242 357.044 204.93 355.748 204.306 354.644C203.706 353.54 202.878 352.688 201.822 352.088C200.766 351.464 199.566 351.152 198.222 351.152C196.878 351.152 195.678 351.464 194.622 352.088C193.566 352.688 192.726 353.54 192.102 354.644C191.478 355.748 191.166 357.044 191.166 358.532C191.166 359.996 191.478 361.292 192.102 362.42C192.726 363.524 193.566 364.388 194.622 365.012C195.678 365.612 196.866 365.912 198.186 365.912ZM220.9 368.18C219.028 368.18 217.348 367.772 215.86 366.956C214.396 366.116 213.244 364.976 212.404 363.536C211.564 362.072 211.144 360.404 211.144 358.532C211.144 356.636 211.564 354.968 212.404 353.528C213.244 352.088 214.396 350.96 215.86 350.144C217.348 349.328 219.028 348.92 220.9 348.92C222.508 348.92 223.96 349.232 225.256 349.856C226.552 350.48 227.572 351.416 228.316 352.664L226.408 353.96C225.76 353 224.956 352.292 223.996 351.836C223.036 351.38 221.992 351.152 220.864 351.152C219.52 351.152 218.308 351.464 217.228 352.088C216.148 352.688 215.296 353.54 214.672 354.644C214.048 355.748 213.736 357.044 213.736 358.532C213.736 360.02 214.048 361.316 214.672 362.42C215.296 363.524 216.148 364.388 217.228 365.012C218.308 365.612 219.52 365.912 220.864 365.912C221.992 365.912 223.036 365.684 223.996 365.228C224.956 364.772 225.76 364.076 226.408 363.14L228.316 364.436C227.572 365.66 226.552 366.596 225.256 367.244C223.96 367.868 222.508 368.18 220.9 368.18ZM245.181 368V363.824L245.073 363.14V356.156C245.073 354.548 244.617 353.312 243.705 352.448C242.817 351.584 241.485 351.152 239.709 351.152C238.485 351.152 237.321 351.356 236.217 351.764C235.113 352.172 234.177 352.712 233.409 353.384L232.257 351.476C233.217 350.66 234.369 350.036 235.713 349.604C237.057 349.148 238.473 348.92 239.961 348.92C242.409 348.92 244.293 349.532 245.613 350.756C246.957 351.956 247.629 353.792 247.629 356.264V368H245.181ZM238.665 368.18C237.249 368.18 236.013 367.952 234.957 367.496C233.925 367.016 233.133 366.368 232.581 365.552C232.029 364.712 231.753 363.752 231.753 362.672C231.753 361.688 231.981 360.8 232.437 360.008C232.917 359.192 233.685 358.544 234.741 358.064C235.821 357.56 237.261 357.308 239.061 357.308H245.577V359.216H239.133C237.309 359.216 236.037 359.54 235.317 360.188C234.621 360.836 234.273 361.64 234.273 362.6C234.273 363.68 234.693 364.544 235.533 365.192C236.373 365.84 237.549 366.164 239.061 366.164C240.501 366.164 241.737 365.84 242.769 365.192C243.825 364.52 244.593 363.56 245.073 362.312L245.649 364.076C245.169 365.324 244.329 366.32 243.129 367.064C241.953 367.808 240.465 368.18 238.665 368.18ZM254.572 368V341.288H257.128V368H254.572ZM264.24 368V349.1H266.796V368H264.24ZM265.536 344.924C265.008 344.924 264.564 344.744 264.204 344.384C263.844 344.024 263.664 343.592 263.664 343.088C263.664 342.584 263.844 342.164 264.204 341.828C264.564 341.468 265.008 341.288 265.536 341.288C266.064 341.288 266.508 341.456 266.868 341.792C267.228 342.128 267.408 342.548 267.408 343.052C267.408 343.58 267.228 344.024 266.868 344.384C266.532 344.744 266.088 344.924 265.536 344.924ZM281.432 368.18C279.632 368.18 278.012 367.772 276.572 366.956C275.156 366.14 274.04 365.012 273.224 363.572C272.408 362.108 272 360.428 272 358.532C272 356.612 272.408 354.932 273.224 353.492C274.04 352.052 275.156 350.936 276.572 350.144C278.012 349.328 279.632 348.92 281.432 348.92C283.088 348.92 284.564 349.292 285.86 350.036C287.18 350.78 288.224 351.872 288.992 353.312C289.784 354.728 290.18 356.468 290.18 358.532C290.18 360.572 289.796 362.312 289.028 363.752C288.26 365.192 287.216 366.296 285.896 367.064C284.6 367.808 283.112 368.18 281.432 368.18ZM281.612 365.912C282.956 365.912 284.156 365.612 285.212 365.012C286.292 364.388 287.132 363.524 287.732 362.42C288.356 361.292 288.668 359.996 288.668 358.532C288.668 357.044 288.356 355.748 287.732 354.644C287.132 353.54 286.292 352.688 285.212 352.088C284.156 351.464 282.956 351.152 281.612 351.152C280.292 351.152 279.104 351.464 278.048 352.088C276.992 352.688 276.152 353.54 275.528 354.644C274.904 355.748 274.592 357.044 274.592 358.532C274.592 359.996 274.904 361.292 275.528 362.42C276.152 363.524 276.992 364.388 278.048 365.012C279.104 365.612 280.292 365.912 281.612 365.912ZM288.74 368V362.312L288.992 358.496L288.632 354.68V341.288H291.188V368H288.74ZM310.15 368V363.824L310.042 363.14V356.156C310.042 354.548 309.586 353.312 308.674 352.448C307.786 351.584 306.454 351.152 304.678 351.152C303.454 351.152 302.29 351.356 301.186 351.764C300.082 352.172 299.146 352.712 298.378 353.384L297.226 351.476C298.186 350.66 299.338 350.036 300.682 349.604C302.026 349.148 303.442 348.92 304.93 348.92C307.378 348.92 309.262 349.532 310.582 350.756C311.926 351.956 312.598 353.792 312.598 356.264V368H310.15ZM303.634 368.18C302.218 368.18 300.982 367.952 299.926 367.496C298.894 367.016 298.102 366.368 297.55 365.552C296.998 364.712 296.722 363.752 296.722 362.672C296.722 361.688 296.95 360.8 297.406 360.008C297.886 359.192 298.654 358.544 299.71 358.064C300.79 357.56 302.23 357.308 304.03 357.308H310.546V359.216H304.102C302.278 359.216 301.006 359.54 300.286 360.188C299.59 360.836 299.242 361.64 299.242 362.6C299.242 363.68 299.662 364.544 300.502 365.192C301.342 365.84 302.518 366.164 304.03 366.164C305.47 366.164 306.706 365.84 307.738 365.192C308.794 364.52 309.562 363.56 310.042 362.312L310.618 364.076C310.138 365.324 309.298 366.32 308.098 367.064C306.922 367.808 305.434 368.18 303.634 368.18ZM327.065 368.18C325.265 368.18 323.645 367.772 322.205 366.956C320.789 366.14 319.673 365.012 318.857 363.572C318.041 362.108 317.633 360.428 317.633 358.532C317.633 356.612 318.041 354.932 318.857 353.492C319.673 352.052 320.789 350.936 322.205 350.144C323.645 349.328 325.265 348.92 327.065 348.92C328.721 348.92 330.197 349.292 331.493 350.036C332.813 350.78 333.857 351.872 334.625 353.312C335.417 354.728 335.813 356.468 335.813 358.532C335.813 360.572 335.429 362.312 334.661 363.752C333.893 365.192 332.849 366.296 331.529 367.064C330.233 367.808 328.745 368.18 327.065 368.18ZM327.245 365.912C328.589 365.912 329.789 365.612 330.845 365.012C331.925 364.388 332.765 363.524 333.365 362.42C333.989 361.292 334.301 359.996 334.301 358.532C334.301 357.044 333.989 355.748 333.365 354.644C332.765 353.54 331.925 352.688 330.845 352.088C329.789 351.464 328.589 351.152 327.245 351.152C325.925 351.152 324.737 351.464 323.681 352.088C322.625 352.688 321.785 353.54 321.161 354.644C320.537 355.748 320.225 357.044 320.225 358.532C320.225 359.996 320.537 361.292 321.161 362.42C321.785 363.524 322.625 364.388 323.681 365.012C324.737 365.612 325.925 365.912 327.245 365.912ZM334.373 368V362.312L334.625 358.496L334.265 354.68V341.288H336.821V368H334.373ZM344.403 352.002C343.846 352.002 343.364 351.799 342.959 351.394C342.579 350.989 342.389 350.495 342.389 349.912C342.389 349.304 342.579 348.81 342.959 348.43C343.364 348.05 343.846 347.86 344.403 347.86C344.96 347.86 345.429 348.05 345.809 348.43C346.214 348.81 346.417 349.304 346.417 349.912C346.417 350.495 346.214 350.989 345.809 351.394C345.429 351.799 344.96 352.002 344.403 352.002ZM344.403 368.19C343.846 368.19 343.364 367.987 342.959 367.582C342.579 367.177 342.389 366.683 342.389 366.1C342.389 365.492 342.579 364.998 342.959 364.618C343.364 364.238 343.846 364.048 344.403 364.048C344.96 364.048 345.429 364.238 345.809 364.618C346.214 364.998 346.417 365.492 346.417 366.1C346.417 366.683 346.214 367.177 345.809 367.582C345.429 367.987 344.96 368.19 344.403 368.19Z" fill="black"/>
<path d="M170.104 446V420.8H179.536C181.672 420.8 183.508 421.148 185.044 421.844C186.58 422.516 187.756 423.5 188.572 424.796C189.412 426.068 189.832 427.616 189.832 429.44C189.832 431.216 189.412 432.752 188.572 434.048C187.756 435.32 186.58 436.304 185.044 437C183.508 437.696 181.672 438.044 179.536 438.044H171.58L172.768 436.784V446H170.104ZM172.768 437L171.58 435.704H179.464C181.984 435.704 183.892 435.164 185.188 434.084C186.508 432.98 187.168 431.432 187.168 429.44C187.168 427.424 186.508 425.864 185.188 424.76C183.892 423.656 181.984 423.104 179.464 423.104H171.58L172.768 421.844V437ZM194.595 446V427.1H197.043V432.248L196.791 431.348C197.319 429.908 198.207 428.816 199.455 428.072C200.703 427.304 202.251 426.92 204.099 426.92V429.404C204.003 429.404 203.907 429.404 203.811 429.404C203.715 429.38 203.619 429.368 203.523 429.368C201.531 429.368 199.971 429.98 198.843 431.204C197.715 432.404 197.151 434.12 197.151 436.352V446H194.595ZM216.615 446.18C214.647 446.18 212.919 445.772 211.431 444.956C209.943 444.116 208.779 442.976 207.939 441.536C207.099 440.072 206.679 438.404 206.679 436.532C206.679 434.66 207.075 433.004 207.867 431.564C208.683 430.124 209.787 428.996 211.179 428.18C212.595 427.34 214.179 426.92 215.931 426.92C217.707 426.92 219.279 427.328 220.647 428.144C222.039 428.936 223.131 430.064 223.923 431.528C224.715 432.968 225.111 434.636 225.111 436.532C225.111 436.652 225.099 436.784 225.075 436.928C225.075 437.048 225.075 437.18 225.075 437.324H208.623V435.416H223.707L222.699 436.172C222.699 434.804 222.399 433.592 221.799 432.536C221.223 431.456 220.431 430.616 219.423 430.016C218.415 429.416 217.251 429.116 215.931 429.116C214.635 429.116 213.471 429.416 212.439 430.016C211.407 430.616 210.603 431.456 210.027 432.536C209.451 433.616 209.163 434.852 209.163 436.244V436.64C209.163 438.08 209.475 439.352 210.099 440.456C210.747 441.536 211.635 442.388 212.763 443.012C213.915 443.612 215.223 443.912 216.687 443.912C217.839 443.912 218.907 443.708 219.891 443.3C220.899 442.892 221.763 442.268 222.483 441.428L223.923 443.084C223.083 444.092 222.027 444.86 220.755 445.388C219.507 445.916 218.127 446.18 216.615 446.18ZM238.162 446.18C236.29 446.18 234.61 445.772 233.122 444.956C231.658 444.116 230.506 442.976 229.666 441.536C228.826 440.072 228.406 438.404 228.406 436.532C228.406 434.636 228.826 432.968 229.666 431.528C230.506 430.088 231.658 428.96 233.122 428.144C234.61 427.328 236.29 426.92 238.162 426.92C239.77 426.92 241.222 427.232 242.518 427.856C243.814 428.48 244.834 429.416 245.578 430.664L243.67 431.96C243.022 431 242.218 430.292 241.258 429.836C240.298 429.38 239.254 429.152 238.126 429.152C236.782 429.152 235.57 429.464 234.49 430.088C233.41 430.688 232.558 431.54 231.934 432.644C231.31 433.748 230.998 435.044 230.998 436.532C230.998 438.02 231.31 439.316 231.934 440.42C232.558 441.524 233.41 442.388 234.49 443.012C235.57 443.612 236.782 443.912 238.126 443.912C239.254 443.912 240.298 443.684 241.258 443.228C242.218 442.772 243.022 442.076 243.67 441.14L245.578 442.436C244.834 443.66 243.814 444.596 242.518 445.244C241.222 445.868 239.77 446.18 238.162 446.18ZM250.318 446V427.1H252.874V446H250.318ZM251.614 422.924C251.086 422.924 250.642 422.744 250.282 422.384C249.922 422.024 249.742 421.592 249.742 421.088C249.742 420.584 249.922 420.164 250.282 419.828C250.642 419.468 251.086 419.288 251.614 419.288C252.142 419.288 252.586 419.456 252.946 419.792C253.306 420.128 253.486 420.548 253.486 421.052C253.486 421.58 253.306 422.024 252.946 422.384C252.61 422.744 252.166 422.924 251.614 422.924ZM267.69 446.18C265.866 446.18 264.222 445.772 262.758 444.956C261.318 444.116 260.178 442.976 259.338 441.536C258.498 440.072 258.078 438.404 258.078 436.532C258.078 434.636 258.498 432.968 259.338 431.528C260.178 430.088 261.318 428.96 262.758 428.144C264.198 427.328 265.842 426.92 267.69 426.92C269.562 426.92 271.218 427.328 272.658 428.144C274.122 428.96 275.262 430.088 276.078 431.528C276.918 432.968 277.338 434.636 277.338 436.532C277.338 438.404 276.918 440.072 276.078 441.536C275.262 442.976 274.122 444.116 272.658 444.956C271.194 445.772 269.538 446.18 267.69 446.18ZM267.69 443.912C269.058 443.912 270.27 443.612 271.326 443.012C272.382 442.388 273.21 441.524 273.81 440.42C274.434 439.292 274.746 437.996 274.746 436.532C274.746 435.044 274.434 433.748 273.81 432.644C273.21 431.54 272.382 430.688 271.326 430.088C270.27 429.464 269.07 429.152 267.726 429.152C266.382 429.152 265.182 429.464 264.126 430.088C263.07 430.688 262.23 431.54 261.606 432.644C260.982 433.748 260.67 435.044 260.67 436.532C260.67 437.996 260.982 439.292 261.606 440.42C262.23 441.524 263.07 442.388 264.126 443.012C265.182 443.612 266.37 443.912 267.69 443.912ZM282.808 430.844C282.28 430.844 281.824 430.652 281.44 430.268C281.08 429.884 280.9 429.416 280.9 428.864C280.9 428.288 281.08 427.82 281.44 427.46C281.824 427.1 282.28 426.92 282.808 426.92C283.336 426.92 283.78 427.1 284.14 427.46C284.524 427.82 284.716 428.288 284.716 428.864C284.716 429.416 284.524 429.884 284.14 430.268C283.78 430.652 283.336 430.844 282.808 430.844ZM282.808 446.18C282.28 446.18 281.824 445.988 281.44 445.604C281.08 445.22 280.9 444.752 280.9 444.2C280.9 443.624 281.08 443.156 281.44 442.796C281.824 442.436 282.28 442.256 282.808 442.256C283.336 442.256 283.78 442.436 284.14 442.796C284.524 443.156 284.716 443.624 284.716 444.2C284.716 444.752 284.524 445.22 284.14 445.604C283.78 445.988 283.336 446.18 282.808 446.18Z" fill="black"/>
<path d="M510.048 368.216C508.152 368.216 506.4 367.904 504.792 367.28C503.184 366.632 501.792 365.732 500.616 364.58C499.44 363.428 498.516 362.072 497.844 360.512C497.196 358.952 496.872 357.248 496.872 355.4C496.872 353.552 497.196 351.848 497.844 350.288C498.516 348.728 499.44 347.372 500.616 346.22C501.816 345.068 503.22 344.18 504.828 343.556C506.436 342.908 508.188 342.584 510.084 342.584C511.908 342.584 513.624 342.896 515.232 343.52C516.84 344.12 518.196 345.032 519.3 346.256L517.608 347.948C516.576 346.892 515.436 346.136 514.188 345.68C512.94 345.2 511.596 344.96 510.156 344.96C508.644 344.96 507.24 345.224 505.944 345.752C504.648 346.256 503.52 346.988 502.56 347.948C501.6 348.884 500.844 349.988 500.292 351.26C499.764 352.508 499.5 353.888 499.5 355.4C499.5 356.912 499.764 358.304 500.292 359.576C500.844 360.824 501.6 361.928 502.56 362.888C503.52 363.824 504.648 364.556 505.944 365.084C507.24 365.588 508.644 365.84 510.156 365.84C511.596 365.84 512.94 365.6 514.188 365.12C515.436 364.64 516.576 363.872 517.608 362.816L519.3 364.508C518.196 365.732 516.84 366.656 515.232 367.28C513.624 367.904 511.896 368.216 510.048 368.216ZM536.002 368V363.824L535.894 363.14V356.156C535.894 354.548 535.438 353.312 534.526 352.448C533.638 351.584 532.306 351.152 530.53 351.152C529.306 351.152 528.142 351.356 527.038 351.764C525.934 352.172 524.998 352.712 524.23 353.384L523.078 351.476C524.038 350.66 525.19 350.036 526.534 349.604C527.878 349.148 529.294 348.92 530.782 348.92C533.23 348.92 535.114 349.532 536.434 350.756C537.778 351.956 538.45 353.792 538.45 356.264V368H536.002ZM529.486 368.18C528.07 368.18 526.834 367.952 525.778 367.496C524.746 367.016 523.954 366.368 523.402 365.552C522.85 364.712 522.574 363.752 522.574 362.672C522.574 361.688 522.802 360.8 523.258 360.008C523.738 359.192 524.506 358.544 525.562 358.064C526.642 357.56 528.082 357.308 529.882 357.308H536.398V359.216H529.954C528.13 359.216 526.858 359.54 526.138 360.188C525.442 360.836 525.094 361.64 525.094 362.6C525.094 363.68 525.514 364.544 526.354 365.192C527.194 365.84 528.37 366.164 529.882 366.164C531.322 366.164 532.558 365.84 533.59 365.192C534.646 364.52 535.414 363.56 535.894 362.312L536.47 364.076C535.99 365.324 535.15 366.32 533.95 367.064C532.774 367.808 531.286 368.18 529.486 368.18ZM555.04 348.92C556.576 348.92 557.92 349.22 559.072 349.82C560.248 350.396 561.16 351.284 561.808 352.484C562.48 353.684 562.816 355.196 562.816 357.02V368H560.26V357.272C560.26 355.28 559.756 353.78 558.748 352.772C557.764 351.74 556.372 351.224 554.572 351.224C553.228 351.224 552.052 351.5 551.044 352.052C550.06 352.58 549.292 353.36 548.74 354.392C548.212 355.4 547.948 356.624 547.948 358.064V368H545.392V349.1H547.84V354.284L547.444 353.312C548.044 351.944 549.004 350.876 550.324 350.108C551.644 349.316 553.216 348.92 555.04 348.92ZM575.696 368.18C573.92 368.18 572.552 367.7 571.592 366.74C570.632 365.78 570.152 364.424 570.152 362.672V344.924H572.708V362.528C572.708 363.632 572.984 364.484 573.536 365.084C574.112 365.684 574.928 365.984 575.984 365.984C577.112 365.984 578.048 365.66 578.792 365.012L579.692 366.848C579.188 367.304 578.576 367.64 577.856 367.856C577.16 368.072 576.44 368.18 575.696 368.18ZM566.768 351.224V349.1H578.468V351.224H566.768ZM584.345 368V349.1H586.901V368H584.345ZM585.641 344.924C585.113 344.924 584.669 344.744 584.309 344.384C583.949 344.024 583.769 343.592 583.769 343.088C583.769 342.584 583.949 342.164 584.309 341.828C584.669 341.468 585.113 341.288 585.641 341.288C586.169 341.288 586.613 341.456 586.973 341.792C587.333 342.128 587.513 342.548 587.513 343.052C587.513 343.58 587.333 344.024 586.973 344.384C586.637 344.744 586.193 344.924 585.641 344.924ZM601.537 368.18C599.737 368.18 598.117 367.772 596.677 366.956C595.261 366.14 594.145 365.012 593.329 363.572C592.513 362.108 592.105 360.428 592.105 358.532C592.105 356.612 592.513 354.932 593.329 353.492C594.145 352.052 595.261 350.936 596.677 350.144C598.117 349.328 599.737 348.92 601.537 348.92C603.193 348.92 604.669 349.292 605.965 350.036C607.285 350.78 608.329 351.872 609.097 353.312C609.889 354.728 610.285 356.468 610.285 358.532C610.285 360.572 609.901 362.312 609.133 363.752C608.365 365.192 607.321 366.296 606.001 367.064C604.705 367.808 603.217 368.18 601.537 368.18ZM601.717 365.912C603.061 365.912 604.261 365.612 605.317 365.012C606.397 364.388 607.237 363.524 607.837 362.42C608.461 361.292 608.773 359.996 608.773 358.532C608.773 357.044 608.461 355.748 607.837 354.644C607.237 353.54 606.397 352.688 605.317 352.088C604.261 351.464 603.061 351.152 601.717 351.152C600.397 351.152 599.209 351.464 598.153 352.088C597.097 352.688 596.257 353.54 595.633 354.644C595.009 355.748 594.697 357.044 594.697 358.532C594.697 359.996 595.009 361.292 595.633 362.42C596.257 363.524 597.097 364.388 598.153 365.012C599.209 365.612 600.397 365.912 601.717 365.912ZM608.845 368V362.312L609.097 358.496L608.737 354.68V341.288H611.293V368H608.845ZM630.256 368V363.824L630.148 363.14V356.156C630.148 354.548 629.692 353.312 628.78 352.448C627.892 351.584 626.56 351.152 624.784 351.152C623.56 351.152 622.396 351.356 621.292 351.764C620.188 352.172 619.252 352.712 618.484 353.384L617.332 351.476C618.292 350.66 619.444 350.036 620.788 349.604C622.132 349.148 623.548 348.92 625.036 348.92C627.484 348.92 629.368 349.532 630.688 350.756C632.032 351.956 632.704 353.792 632.704 356.264V368H630.256ZM623.74 368.18C622.324 368.18 621.088 367.952 620.032 367.496C619 367.016 618.208 366.368 617.656 365.552C617.104 364.712 616.828 363.752 616.828 362.672C616.828 361.688 617.056 360.8 617.512 360.008C617.992 359.192 618.76 358.544 619.816 358.064C620.896 357.56 622.336 357.308 624.136 357.308H630.652V359.216H624.208C622.384 359.216 621.112 359.54 620.392 360.188C619.696 360.836 619.348 361.64 619.348 362.6C619.348 363.68 619.768 364.544 620.608 365.192C621.448 365.84 622.624 366.164 624.136 366.164C625.576 366.164 626.812 365.84 627.844 365.192C628.9 364.52 629.668 363.56 630.148 362.312L630.724 364.076C630.244 365.324 629.404 366.32 628.204 367.064C627.028 367.808 625.54 368.18 623.74 368.18ZM647.17 368.18C645.37 368.18 643.75 367.772 642.31 366.956C640.894 366.14 639.778 365.012 638.962 363.572C638.146 362.108 637.738 360.428 637.738 358.532C637.738 356.612 638.146 354.932 638.962 353.492C639.778 352.052 640.894 350.936 642.31 350.144C643.75 349.328 645.37 348.92 647.17 348.92C648.826 348.92 650.302 349.292 651.598 350.036C652.918 350.78 653.962 351.872 654.73 353.312C655.522 354.728 655.918 356.468 655.918 358.532C655.918 360.572 655.534 362.312 654.766 363.752C653.998 365.192 652.954 366.296 651.634 367.064C650.338 367.808 648.85 368.18 647.17 368.18ZM647.35 365.912C648.694 365.912 649.894 365.612 650.95 365.012C652.03 364.388 652.87 363.524 653.47 362.42C654.094 361.292 654.406 359.996 654.406 358.532C654.406 357.044 654.094 355.748 653.47 354.644C652.87 353.54 652.03 352.688 650.95 352.088C649.894 351.464 648.694 351.152 647.35 351.152C646.03 351.152 644.842 351.464 643.786 352.088C642.73 352.688 641.89 353.54 641.266 354.644C640.642 355.748 640.33 357.044 640.33 358.532C640.33 359.996 640.642 361.292 641.266 362.42C641.89 363.524 642.73 364.388 643.786 365.012C644.842 365.612 646.03 365.912 647.35 365.912ZM654.478 368V362.312L654.73 358.496L654.37 354.68V341.288H656.926V368H654.478ZM664.508 352.002C663.951 352.002 663.47 351.799 663.064 351.394C662.684 350.989 662.494 350.495 662.494 349.912C662.494 349.304 662.684 348.81 663.064 348.43C663.47 348.05 663.951 347.86 664.508 347.86C665.066 347.86 665.534 348.05 665.914 348.43C666.32 348.81 666.522 349.304 666.522 349.912C666.522 350.495 666.32 350.989 665.914 351.394C665.534 351.799 665.066 352.002 664.508 352.002ZM664.508 368.19C663.951 368.19 663.47 367.987 663.064 367.582C662.684 367.177 662.494 366.683 662.494 366.1C662.494 365.492 662.684 364.998 663.064 364.618C663.47 364.238 663.951 364.048 664.508 364.048C665.066 364.048 665.534 364.238 665.914 364.618C666.32 364.998 666.522 365.492 666.522 366.1C666.522 366.683 666.32 367.177 665.914 367.582C665.534 367.987 665.066 368.19 664.508 368.19Z" fill="black"/>
<path d="M172.48 189.004H185.8V191.308H172.48V189.004ZM172.768 202H170.104V176.8H187.384V179.104H172.768V202ZM199.84 202.18C197.872 202.18 196.144 201.772 194.656 200.956C193.168 200.116 192.004 198.976 191.164 197.536C190.324 196.072 189.904 194.404 189.904 192.532C189.904 190.66 190.3 189.004 191.092 187.564C191.908 186.124 193.012 184.996 194.404 184.18C195.82 183.34 197.404 182.92 199.156 182.92C200.932 182.92 202.504 183.328 203.872 184.144C205.264 184.936 206.356 186.064 207.148 187.528C207.94 188.968 208.336 190.636 208.336 192.532C208.336 192.652 208.324 192.784 208.3 192.928C208.3 193.048 208.3 193.18 208.3 193.324H191.848V191.416H206.932L205.924 192.172C205.924 190.804 205.624 189.592 205.024 188.536C204.448 187.456 203.656 186.616 202.648 186.016C201.64 185.416 200.476 185.116 199.156 185.116C197.86 185.116 196.696 185.416 195.664 186.016C194.632 186.616 193.828 187.456 193.252 188.536C192.676 189.616 192.388 190.852 192.388 192.244V192.64C192.388 194.08 192.7 195.352 193.324 196.456C193.972 197.536 194.86 198.388 195.988 199.012C197.14 199.612 198.448 199.912 199.912 199.912C201.064 199.912 202.132 199.708 203.116 199.3C204.124 198.892 204.988 198.268 205.708 197.428L207.148 199.084C206.308 200.092 205.252 200.86 203.98 201.388C202.732 201.916 201.352 202.18 199.84 202.18ZM221.487 202.18C219.615 202.18 217.935 201.772 216.447 200.956C214.983 200.116 213.831 198.976 212.991 197.536C212.151 196.072 211.731 194.404 211.731 192.532C211.731 190.636 212.151 188.968 212.991 187.528C213.831 186.088 214.983 184.96 216.447 184.144C217.935 183.328 219.615 182.92 221.487 182.92C223.095 182.92 224.547 183.232 225.843 183.856C227.139 184.48 228.159 185.416 228.903 186.664L226.995 187.96C226.347 187 225.543 186.292 224.583 185.836C223.623 185.38 222.579 185.152 221.451 185.152C220.107 185.152 218.895 185.464 217.815 186.088C216.735 186.688 215.883 187.54 215.259 188.644C214.635 189.748 214.323 191.044 214.323 192.532C214.323 194.02 214.635 195.316 215.259 196.42C215.883 197.524 216.735 198.388 217.815 199.012C218.895 199.612 220.107 199.912 221.451 199.912C222.579 199.912 223.623 199.684 224.583 199.228C225.543 198.772 226.347 198.076 226.995 197.14L228.903 198.436C228.159 199.66 227.139 200.596 225.843 201.244C224.547 201.868 223.095 202.18 221.487 202.18ZM243.391 182.92C244.927 182.92 246.271 183.22 247.423 183.82C248.599 184.396 249.511 185.284 250.159 186.484C250.831 187.684 251.167 189.196 251.167 191.02V202H248.611V191.272C248.611 189.28 248.107 187.78 247.099 186.772C246.115 185.74 244.723 185.224 242.923 185.224C241.579 185.224 240.403 185.5 239.395 186.052C238.411 186.58 237.643 187.36 237.091 188.392C236.563 189.4 236.299 190.624 236.299 192.064V202H233.743V175.288H236.299V188.284L235.795 187.312C236.395 185.944 237.355 184.876 238.675 184.108C239.995 183.316 241.567 182.92 243.391 182.92ZM270.015 202V197.824L269.907 197.14V190.156C269.907 188.548 269.451 187.312 268.539 186.448C267.651 185.584 266.319 185.152 264.543 185.152C263.319 185.152 262.155 185.356 261.051 185.764C259.947 186.172 259.011 186.712 258.243 187.384L257.091 185.476C258.051 184.66 259.203 184.036 260.547 183.604C261.891 183.148 263.307 182.92 264.795 182.92C267.243 182.92 269.127 183.532 270.447 184.756C271.791 185.956 272.463 187.792 272.463 190.264V202H270.015ZM263.499 202.18C262.083 202.18 260.847 201.952 259.791 201.496C258.759 201.016 257.967 200.368 257.415 199.552C256.863 198.712 256.587 197.752 256.587 196.672C256.587 195.688 256.815 194.8 257.271 194.008C257.751 193.192 258.519 192.544 259.575 192.064C260.655 191.56 262.095 191.308 263.895 191.308H270.411V193.216H263.967C262.143 193.216 260.871 193.54 260.151 194.188C259.455 194.836 259.107 195.64 259.107 196.6C259.107 197.68 259.527 198.544 260.367 199.192C261.207 199.84 262.383 200.164 263.895 200.164C265.335 200.164 266.571 199.84 267.603 199.192C268.659 198.52 269.427 197.56 269.907 196.312L270.483 198.076C270.003 199.324 269.163 200.32 267.963 201.064C266.787 201.808 265.299 202.18 263.499 202.18ZM279.757 186.844C279.229 186.844 278.773 186.652 278.389 186.268C278.029 185.884 277.849 185.416 277.849 184.864C277.849 184.288 278.029 183.82 278.389 183.46C278.773 183.1 279.229 182.92 279.757 182.92C280.285 182.92 280.729 183.1 281.089 183.46C281.473 183.82 281.665 184.288 281.665 184.864C281.665 185.416 281.473 185.884 281.089 186.268C280.729 186.652 280.285 186.844 279.757 186.844ZM279.757 202.18C279.229 202.18 278.773 201.988 278.389 201.604C278.029 201.22 277.849 200.752 277.849 200.2C277.849 199.624 278.029 199.156 278.389 198.796C278.773 198.436 279.229 198.256 279.757 198.256C280.285 198.256 280.729 198.436 281.089 198.796C281.473 199.156 281.665 199.624 281.665 200.2C281.665 200.752 281.473 201.22 281.089 201.604C280.729 201.988 280.285 202.18 279.757 202.18Z" fill="black"/>
<path d="M537.536 177.8H540.164V203H537.536V177.8ZM521.768 203H519.104V177.8H521.768V203ZM537.788 191.372H521.48V189.032H537.788V191.372ZM555.653 203.18C553.829 203.18 552.185 202.772 550.721 201.956C549.281 201.116 548.141 199.976 547.301 198.536C546.461 197.072 546.041 195.404 546.041 193.532C546.041 191.636 546.461 189.968 547.301 188.528C548.141 187.088 549.281 185.96 550.721 185.144C552.161 184.328 553.805 183.92 555.653 183.92C557.525 183.92 559.181 184.328 560.621 185.144C562.085 185.96 563.225 187.088 564.041 188.528C564.881 189.968 565.301 191.636 565.301 193.532C565.301 195.404 564.881 197.072 564.041 198.536C563.225 199.976 562.085 201.116 560.621 201.956C559.157 202.772 557.501 203.18 555.653 203.18ZM555.653 200.912C557.021 200.912 558.233 200.612 559.289 200.012C560.345 199.388 561.173 198.524 561.773 197.42C562.397 196.292 562.709 194.996 562.709 193.532C562.709 192.044 562.397 190.748 561.773 189.644C561.173 188.54 560.345 187.688 559.289 187.088C558.233 186.464 557.033 186.152 555.689 186.152C554.345 186.152 553.145 186.464 552.089 187.088C551.033 187.688 550.193 188.54 549.569 189.644C548.945 190.748 548.633 192.044 548.633 193.532C548.633 194.996 548.945 196.292 549.569 197.42C550.193 198.524 551.033 199.388 552.089 200.012C553.145 200.612 554.333 200.912 555.653 200.912ZM570.619 203V184.1H573.067V189.248L572.815 188.348C573.343 186.908 574.231 185.816 575.479 185.072C576.727 184.304 578.275 183.92 580.123 183.92V186.404C580.027 186.404 579.931 186.404 579.835 186.404C579.739 186.38 579.643 186.368 579.547 186.368C577.555 186.368 575.995 186.98 574.867 188.204C573.739 189.404 573.175 191.12 573.175 193.352V203H570.619ZM595.325 203V198.824L595.217 198.14V191.156C595.217 189.548 594.761 188.312 593.849 187.448C592.961 186.584 591.629 186.152 589.853 186.152C588.629 186.152 587.465 186.356 586.361 186.764C585.257 187.172 584.321 187.712 583.553 188.384L582.401 186.476C583.361 185.66 584.513 185.036 585.857 184.604C587.201 184.148 588.617 183.92 590.105 183.92C592.553 183.92 594.437 184.532 595.757 185.756C597.101 186.956 597.773 188.792 597.773 191.264V203H595.325ZM588.809 203.18C587.393 203.18 586.157 202.952 585.101 202.496C584.069 202.016 583.277 201.368 582.725 200.552C582.173 199.712 581.897 198.752 581.897 197.672C581.897 196.688 582.125 195.8 582.581 195.008C583.061 194.192 583.829 193.544 584.885 193.064C585.965 192.56 587.405 192.308 589.205 192.308H595.721V194.216H589.277C587.453 194.216 586.181 194.54 585.461 195.188C584.765 195.836 584.417 196.64 584.417 197.6C584.417 198.68 584.837 199.544 585.677 200.192C586.517 200.84 587.693 201.164 589.205 201.164C590.645 201.164 591.881 200.84 592.913 200.192C593.969 199.52 594.737 198.56 595.217 197.312L595.793 199.076C595.313 200.324 594.473 201.32 593.273 202.064C592.097 202.808 590.609 203.18 588.809 203.18ZM605.28 187.002C604.722 187.002 604.241 186.799 603.836 186.394C603.456 185.989 603.266 185.495 603.266 184.912C603.266 184.304 603.456 183.81 603.836 183.43C604.241 183.05 604.722 182.86 605.28 182.86C605.837 182.86 606.306 183.05 606.686 183.43C607.091 183.81 607.294 184.304 607.294 184.912C607.294 185.495 607.091 185.989 606.686 186.394C606.306 186.799 605.837 187.002 605.28 187.002ZM605.28 203.19C604.722 203.19 604.241 202.987 603.836 202.582C603.456 202.177 603.266 201.683 603.266 201.1C603.266 200.492 603.456 199.998 603.836 199.618C604.241 199.238 604.722 199.048 605.28 199.048C605.837 199.048 606.306 199.238 606.686 199.618C607.091 199.998 607.294 200.492 607.294 201.1C607.294 201.683 607.091 202.177 606.686 202.582C606.306 202.987 605.837 203.19 605.28 203.19Z" fill="black"/>
<rect x="166.5" y="218.5" width="239" height="75" fill="white" stroke="black"/>
<rect x="515.5" y="218.5" width="239" height="75" fill="white" stroke="black"/>
<path d="M197.296 269V244.88L198.448 246.104H191.356V243.8H199.888V269H197.296ZM205.544 269V267.164L216.02 256.904C216.98 255.968 217.7 255.152 218.18 254.456C218.66 253.736 218.984 253.064 219.152 252.44C219.32 251.816 219.404 251.228 219.404 250.676C219.404 249.212 218.9 248.06 217.892 247.22C216.908 246.38 215.444 245.96 213.5 245.96C212.012 245.96 210.692 246.188 209.54 246.644C208.412 247.1 207.44 247.808 206.624 248.768L204.788 247.184C205.772 246.032 207.032 245.144 208.568 244.52C210.104 243.896 211.82 243.584 213.716 243.584C215.42 243.584 216.896 243.86 218.144 244.412C219.392 244.94 220.352 245.72 221.024 246.752C221.72 247.784 222.068 248.996 222.068 250.388C222.068 251.204 221.948 252.008 221.708 252.8C221.492 253.592 221.084 254.432 220.484 255.32C219.908 256.184 219.056 257.168 217.928 258.272L208.316 267.704L207.596 266.696H223.22V269H205.544ZM224.153 272.6L236.033 238.688H238.373L226.493 272.6H224.153ZM248.424 269.216C246.48 269.216 244.752 268.712 243.24 267.704C241.728 266.672 240.54 265.208 239.676 263.312C238.812 261.392 238.38 259.088 238.38 256.4C238.38 253.712 238.812 251.42 239.676 249.524C240.54 247.604 241.728 246.14 243.24 245.132C244.752 244.1 246.48 243.584 248.424 243.584C250.368 243.584 252.096 244.1 253.608 245.132C255.12 246.14 256.308 247.604 257.172 249.524C258.06 251.42 258.504 253.712 258.504 256.4C258.504 259.088 258.06 261.392 257.172 263.312C256.308 265.208 255.12 266.672 253.608 267.704C252.096 268.712 250.368 269.216 248.424 269.216ZM248.424 266.84C249.912 266.84 251.208 266.444 252.312 265.652C253.416 264.836 254.28 263.66 254.904 262.124C255.528 260.564 255.84 258.656 255.84 256.4C255.84 254.144 255.528 252.248 254.904 250.712C254.28 249.152 253.416 247.976 252.312 247.184C251.208 246.368 249.912 245.96 248.424 245.96C246.984 245.96 245.7 246.368 244.572 247.184C243.444 247.976 242.568 249.152 241.944 250.712C241.32 252.248 241.008 254.144 241.008 256.4C241.008 258.656 241.32 260.564 241.944 262.124C242.568 263.66 243.444 264.836 244.572 265.652C245.7 266.444 246.984 266.84 248.424 266.84ZM271.892 269.216C269.876 269.216 268.136 268.928 266.672 268.352C265.232 267.776 264.116 266.948 263.324 265.868C262.556 264.764 262.172 263.468 262.172 261.98C262.172 260.54 262.544 259.316 263.288 258.308C264.056 257.276 265.16 256.484 266.6 255.932C268.064 255.38 269.828 255.104 271.892 255.104C273.932 255.104 275.684 255.38 277.148 255.932C278.612 256.484 279.728 257.276 280.496 258.308C281.288 259.316 281.684 260.54 281.684 261.98C281.684 263.468 281.288 264.764 280.496 265.868C279.704 266.948 278.576 267.776 277.112 268.352C275.648 268.928 273.908 269.216 271.892 269.216ZM271.892 267.02C274.124 267.02 275.864 266.564 277.112 265.652C278.384 264.74 279.02 263.504 279.02 261.944C279.02 260.384 278.384 259.16 277.112 258.272C275.864 257.36 274.124 256.904 271.892 256.904C269.66 256.904 267.92 257.36 266.672 258.272C265.424 259.16 264.8 260.384 264.8 261.944C264.8 263.504 265.424 264.74 266.672 265.652C267.92 266.564 269.66 267.02 271.892 267.02ZM271.892 256.58C270.02 256.58 268.424 256.328 267.104 255.824C265.808 255.32 264.812 254.6 264.116 253.664C263.42 252.704 263.072 251.564 263.072 250.244C263.072 248.852 263.432 247.664 264.152 246.68C264.896 245.672 265.928 244.904 267.248 244.376C268.568 243.848 270.116 243.584 271.892 243.584C273.668 243.584 275.216 243.848 276.536 244.376C277.88 244.904 278.924 245.672 279.668 246.68C280.412 247.664 280.784 248.852 280.784 250.244C280.784 251.564 280.436 252.704 279.74 253.664C279.044 254.6 278.024 255.32 276.68 255.824C275.36 256.328 273.764 256.58 271.892 256.58ZM271.892 254.852C273.86 254.852 275.396 254.444 276.5 253.628C277.604 252.812 278.156 251.72 278.156 250.352C278.156 248.912 277.58 247.796 276.428 247.004C275.3 246.188 273.788 245.78 271.892 245.78C269.996 245.78 268.484 246.188 267.356 247.004C266.228 247.796 265.664 248.9 265.664 250.316C265.664 251.708 266.204 252.812 267.284 253.628C268.388 254.444 269.924 254.852 271.892 254.852ZM282.601 272.6L294.481 238.688H296.821L284.941 272.6H282.601ZM297.064 269V267.164L307.54 256.904C308.5 255.968 309.22 255.152 309.7 254.456C310.18 253.736 310.504 253.064 310.672 252.44C310.84 251.816 310.924 251.228 310.924 250.676C310.924 249.212 310.42 248.06 309.412 247.22C308.428 246.38 306.964 245.96 305.02 245.96C303.532 245.96 302.212 246.188 301.06 246.644C299.932 247.1 298.96 247.808 298.144 248.768L296.308 247.184C297.292 246.032 298.552 245.144 300.088 244.52C301.624 243.896 303.34 243.584 305.236 243.584C306.94 243.584 308.416 243.86 309.664 244.412C310.912 244.94 311.872 245.72 312.544 246.752C313.24 247.784 313.588 248.996 313.588 250.388C313.588 251.204 313.468 252.008 313.228 252.8C313.012 253.592 312.604 254.432 312.004 255.32C311.428 256.184 310.576 257.168 309.448 258.272L299.836 267.704L299.116 266.696H314.74V269H297.064ZM328.066 269.216C326.122 269.216 324.394 268.712 322.882 267.704C321.37 266.672 320.182 265.208 319.318 263.312C318.454 261.392 318.022 259.088 318.022 256.4C318.022 253.712 318.454 251.42 319.318 249.524C320.182 247.604 321.37 246.14 322.882 245.132C324.394 244.1 326.122 243.584 328.066 243.584C330.01 243.584 331.738 244.1 333.25 245.132C334.762 246.14 335.95 247.604 336.814 249.524C337.702 251.42 338.146 253.712 338.146 256.4C338.146 259.088 337.702 261.392 336.814 263.312C335.95 265.208 334.762 266.672 333.25 267.704C331.738 268.712 330.01 269.216 328.066 269.216ZM328.066 266.84C329.554 266.84 330.85 266.444 331.954 265.652C333.058 264.836 333.922 263.66 334.546 262.124C335.17 260.564 335.482 258.656 335.482 256.4C335.482 254.144 335.17 252.248 334.546 250.712C333.922 249.152 333.058 247.976 331.954 247.184C330.85 246.368 329.554 245.96 328.066 245.96C326.626 245.96 325.342 246.368 324.214 247.184C323.086 247.976 322.21 249.152 321.586 250.712C320.962 252.248 320.65 254.144 320.65 256.4C320.65 258.656 320.962 260.564 321.586 262.124C322.21 263.66 323.086 264.836 324.214 265.652C325.342 266.444 326.626 266.84 328.066 266.84ZM341.49 269V267.164L351.966 256.904C352.926 255.968 353.646 255.152 354.126 254.456C354.606 253.736 354.93 253.064 355.098 252.44C355.266 251.816 355.35 251.228 355.35 250.676C355.35 249.212 354.846 248.06 353.838 247.22C352.854 246.38 351.39 245.96 349.446 245.96C347.958 245.96 346.638 246.188 345.486 246.644C344.358 247.1 343.386 247.808 342.57 248.768L340.734 247.184C341.718 246.032 342.978 245.144 344.514 244.52C346.05 243.896 347.766 243.584 349.662 243.584C351.366 243.584 352.842 243.86 354.09 244.412C355.338 244.94 356.298 245.72 356.97 246.752C357.666 247.784 358.014 248.996 358.014 250.388C358.014 251.204 357.894 252.008 357.654 252.8C357.438 253.592 357.03 254.432 356.43 255.32C355.854 256.184 355.002 257.168 353.874 258.272L344.262 267.704L343.542 266.696H359.166V269H341.49ZM370.043 269.216C368.219 269.216 366.491 268.928 364.859 268.352C363.251 267.752 361.955 266.96 360.971 265.976L362.231 263.924C363.047 264.764 364.139 265.46 365.507 266.012C366.899 266.564 368.411 266.84 370.043 266.84C372.131 266.84 373.727 266.384 374.831 265.472C375.959 264.56 376.523 263.336 376.523 261.8C376.523 260.264 375.971 259.04 374.867 258.128C373.787 257.216 372.071 256.76 369.719 256.76H367.919V254.852L375.695 245.096L376.055 246.104H362.015V243.8H378.215V245.636L370.439 255.392L369.179 254.564H370.151C373.175 254.564 375.431 255.236 376.919 256.58C378.431 257.924 379.187 259.652 379.187 261.764C379.187 263.18 378.851 264.452 378.179 265.58C377.507 266.708 376.487 267.596 375.119 268.244C373.775 268.892 372.083 269.216 370.043 269.216Z" fill="black"/>
<path d="M597.699 269V244.88L598.851 246.104H591.759V243.8H600.291V269H597.699ZM614.263 243.584C616.495 243.584 618.379 244.088 619.915 245.096C621.451 246.08 622.615 247.508 623.407 249.38C624.199 251.252 624.595 253.52 624.595 256.184C624.595 259.016 624.103 261.404 623.119 263.348C622.159 265.292 620.815 266.756 619.087 267.74C617.359 268.724 615.355 269.216 613.075 269.216C611.947 269.216 610.867 269.108 609.835 268.892C608.827 268.676 607.915 268.328 607.099 267.848L608.143 265.76C608.791 266.192 609.535 266.504 610.375 266.696C611.239 266.864 612.127 266.948 613.039 266.948C615.751 266.948 617.911 266.084 619.519 264.356C621.151 262.628 621.967 260.048 621.967 256.616C621.967 256.064 621.931 255.404 621.859 254.636C621.811 253.868 621.679 253.1 621.463 252.332L622.363 253.016C622.123 254.264 621.607 255.332 620.815 256.22C620.047 257.084 619.087 257.744 617.935 258.2C616.807 258.656 615.547 258.884 614.155 258.884C612.499 258.884 611.023 258.572 609.727 257.948C608.455 257.324 607.459 256.448 606.739 255.32C606.019 254.192 605.659 252.86 605.659 251.324C605.659 249.74 606.031 248.372 606.775 247.22C607.519 246.068 608.539 245.18 609.835 244.556C611.155 243.908 612.631 243.584 614.263 243.584ZM614.371 245.78C613.171 245.78 612.103 246.008 611.167 246.464C610.255 246.896 609.535 247.52 609.007 248.336C608.479 249.152 608.215 250.124 608.215 251.252C608.215 252.908 608.779 254.228 609.907 255.212C611.059 256.196 612.607 256.688 614.551 256.688C615.847 256.688 616.975 256.448 617.935 255.968C618.919 255.488 619.675 254.828 620.203 253.988C620.755 253.148 621.031 252.212 621.031 251.18C621.031 250.244 620.779 249.368 620.275 248.552C619.771 247.736 619.027 247.076 618.043 246.572C617.059 246.044 615.835 245.78 614.371 245.78ZM630.396 253.844C629.868 253.844 629.412 253.652 629.028 253.268C628.668 252.884 628.488 252.416 628.488 251.864C628.488 251.288 628.668 250.82 629.028 250.46C629.412 250.1 629.868 249.92 630.396 249.92C630.924 249.92 631.368 250.1 631.728 250.46C632.112 250.82 632.304 251.288 632.304 251.864C632.304 252.416 632.112 252.884 631.728 253.268C631.368 253.652 630.924 253.844 630.396 253.844ZM630.396 269.18C629.868 269.18 629.412 268.988 629.028 268.604C628.668 268.22 628.488 267.752 628.488 267.2C628.488 266.624 628.668 266.156 629.028 265.796C629.412 265.436 629.868 265.256 630.396 265.256C630.924 265.256 631.368 265.436 631.728 265.796C632.112 266.156 632.304 266.624 632.304 267.2C632.304 267.752 632.112 268.22 631.728 268.604C631.368 268.988 630.924 269.18 630.396 269.18ZM643.705 269.216C641.881 269.216 640.153 268.928 638.521 268.352C636.913 267.752 635.617 266.96 634.633 265.976L635.893 263.924C636.709 264.764 637.801 265.46 639.169 266.012C640.561 266.564 642.073 266.84 643.705 266.84C645.793 266.84 647.389 266.384 648.493 265.472C649.621 264.56 650.185 263.336 650.185 261.8C650.185 260.264 649.633 259.04 648.529 258.128C647.449 257.216 645.733 256.76 643.381 256.76H641.581V254.852L649.357 245.096L649.717 246.104H635.677V243.8H651.877V245.636L644.101 255.392L642.841 254.564H643.813C646.837 254.564 649.093 255.236 650.581 256.58C652.093 257.924 652.849 259.652 652.849 261.764C652.849 263.18 652.513 264.452 651.841 265.58C651.169 266.708 650.149 267.596 648.781 268.244C647.437 268.892 645.745 269.216 643.705 269.216ZM666.645 269.216C664.701 269.216 662.973 268.712 661.461 267.704C659.949 266.672 658.761 265.208 657.897 263.312C657.033 261.392 656.601 259.088 656.601 256.4C656.601 253.712 657.033 251.42 657.897 249.524C658.761 247.604 659.949 246.14 661.461 245.132C662.973 244.1 664.701 243.584 666.645 243.584C668.589 243.584 670.317 244.1 671.829 245.132C673.341 246.14 674.529 247.604 675.393 249.524C676.281 251.42 676.725 253.712 676.725 256.4C676.725 259.088 676.281 261.392 675.393 263.312C674.529 265.208 673.341 266.672 671.829 267.704C670.317 268.712 668.589 269.216 666.645 269.216ZM666.645 266.84C668.133 266.84 669.429 266.444 670.533 265.652C671.637 264.836 672.501 263.66 673.125 262.124C673.749 260.564 674.061 258.656 674.061 256.4C674.061 254.144 673.749 252.248 673.125 250.712C672.501 249.152 671.637 247.976 670.533 247.184C669.429 246.368 668.133 245.96 666.645 245.96C665.205 245.96 663.921 246.368 662.793 247.184C661.665 247.976 660.789 249.152 660.165 250.712C659.541 252.248 659.229 254.144 659.229 256.4C659.229 258.656 659.541 260.564 660.165 262.124C660.789 263.66 661.665 264.836 662.793 265.652C663.921 266.444 665.205 266.84 666.645 266.84Z" fill="black"/>
<rect x="372.5" y="328.5" width="82" height="53" fill="white" stroke="black"/>
<rect x="372.5" y="407.5" width="82" height="53" fill="white" stroke="black"/>
<rect x="690.5" y="328.5" width="82" height="53" fill="white" stroke="black"/>
<path d="M394.112 368L382.952 342.8H385.832L396.272 366.524H394.688L405.2 342.8H407.9L396.74 368H394.112ZM411.557 368V342.8H414.221V368H411.557ZM422.42 368V342.8H431.852C433.988 342.8 435.824 343.148 437.36 343.844C438.896 344.516 440.072 345.5 440.888 346.796C441.728 348.068 442.148 349.616 442.148 351.44C442.148 353.216 441.728 354.752 440.888 356.048C440.072 357.32 438.896 358.304 437.36 359C435.824 359.696 433.988 360.044 431.852 360.044H423.896L425.084 358.784V368H422.42ZM425.084 359L423.896 357.704H431.78C434.3 357.704 436.208 357.164 437.504 356.084C438.824 354.98 439.484 353.432 439.484 351.44C439.484 349.424 438.824 347.864 437.504 346.76C436.208 345.656 434.3 345.104 431.78 345.104H423.896L425.084 343.844V359Z" fill="black"/>
<path d="M401.215 447.216C399.415 447.216 397.699 446.928 396.067 446.352C394.435 445.752 393.139 444.96 392.179 443.976L393.439 441.924C394.231 442.764 395.311 443.46 396.679 444.012C398.071 444.564 399.571 444.84 401.179 444.84C403.315 444.84 404.935 444.372 406.039 443.436C407.167 442.476 407.731 441.228 407.731 439.692C407.731 438.612 407.467 437.688 406.939 436.92C406.435 436.128 405.571 435.516 404.347 435.084C403.123 434.652 401.443 434.436 399.307 434.436H393.943L395.239 421.8H409.027V424.104H396.283L397.615 422.844L396.499 433.428L395.167 432.132H399.883C402.427 432.132 404.467 432.444 406.003 433.068C407.539 433.692 408.643 434.568 409.315 435.696C410.011 436.8 410.359 438.096 410.359 439.584C410.359 441 410.023 442.296 409.351 443.472C408.679 444.624 407.671 445.536 406.327 446.208C404.983 446.88 403.279 447.216 401.215 447.216ZM423.693 447.216C421.749 447.216 420.021 446.712 418.509 445.704C416.997 444.672 415.809 443.208 414.945 441.312C414.081 439.392 413.649 437.088 413.649 434.4C413.649 431.712 414.081 429.42 414.945 427.524C415.809 425.604 416.997 424.14 418.509 423.132C420.021 422.1 421.749 421.584 423.693 421.584C425.637 421.584 427.365 422.1 428.877 423.132C430.389 424.14 431.577 425.604 432.441 427.524C433.329 429.42 433.773 431.712 433.773 434.4C433.773 437.088 433.329 439.392 432.441 441.312C431.577 443.208 430.389 444.672 428.877 445.704C427.365 446.712 425.637 447.216 423.693 447.216ZM423.693 444.84C425.181 444.84 426.477 444.444 427.581 443.652C428.685 442.836 429.549 441.66 430.173 440.124C430.797 438.564 431.109 436.656 431.109 434.4C431.109 432.144 430.797 430.248 430.173 428.712C429.549 427.152 428.685 425.976 427.581 425.184C426.477 424.368 425.181 423.96 423.693 423.96C422.253 423.96 420.969 424.368 419.841 425.184C418.713 425.976 417.837 427.152 417.213 428.712C416.589 430.248 416.277 432.144 416.277 434.4C416.277 436.656 416.589 438.564 417.213 440.124C417.837 441.66 418.713 442.836 419.841 443.652C420.969 444.444 422.253 444.84 423.693 444.84Z" fill="black"/>
<path d="M493.722 451.32V417.48H495.522V451.32H493.722ZM494.478 447.216C492.606 447.216 490.806 446.916 489.078 446.316C487.374 445.692 486.054 444.9 485.118 443.94L486.162 441.888C487.05 442.752 488.238 443.484 489.726 444.084C491.238 444.66 492.822 444.948 494.478 444.948C496.062 444.948 497.346 444.756 498.33 444.372C499.338 443.964 500.07 443.424 500.526 442.752C501.006 442.08 501.246 441.336 501.246 440.52C501.246 439.536 500.958 438.744 500.382 438.144C499.83 437.544 499.098 437.076 498.186 436.74C497.274 436.38 496.266 436.068 495.162 435.804C494.058 435.54 492.954 435.264 491.85 434.976C490.746 434.664 489.726 434.256 488.79 433.752C487.878 433.248 487.134 432.588 486.558 431.772C486.006 430.932 485.73 429.84 485.73 428.496C485.73 427.248 486.054 426.108 486.702 425.076C487.374 424.02 488.394 423.18 489.762 422.556C491.13 421.908 492.882 421.584 495.018 421.584C496.434 421.584 497.838 421.788 499.23 422.196C500.622 422.58 501.822 423.12 502.83 423.816L501.93 425.94C500.85 425.22 499.698 424.692 498.474 424.356C497.274 424.02 496.11 423.852 494.982 423.852C493.47 423.852 492.222 424.056 491.238 424.464C490.254 424.872 489.522 425.424 489.042 426.12C488.586 426.792 488.358 427.56 488.358 428.424C488.358 429.408 488.634 430.2 489.186 430.8C489.762 431.4 490.506 431.868 491.418 432.204C492.354 432.54 493.374 432.84 494.478 433.104C495.582 433.368 496.674 433.656 497.754 433.968C498.858 434.28 499.866 434.688 500.778 435.192C501.714 435.672 502.458 436.32 503.01 437.136C503.586 437.952 503.874 439.02 503.874 440.34C503.874 441.564 503.538 442.704 502.866 443.76C502.194 444.792 501.162 445.632 499.77 446.28C498.402 446.904 496.638 447.216 494.478 447.216Z" fill="black"/>
<path d="M723.174 368V366.164L733.65 355.904C734.61 354.968 735.33 354.152 735.81 353.456C736.29 352.736 736.614 352.064 736.782 351.44C736.95 350.816 737.034 350.228 737.034 349.676C737.034 348.212 736.53 347.06 735.522 346.22C734.538 345.38 733.074 344.96 731.13 344.96C729.642 344.96 728.322 345.188 727.17 345.644C726.042 346.1 725.07 346.808 724.254 347.768L722.418 346.184C723.402 345.032 724.662 344.144 726.198 343.52C727.734 342.896 729.45 342.584 731.346 342.584C733.05 342.584 734.526 342.86 735.774 343.412C737.022 343.94 737.982 344.72 738.654 345.752C739.35 346.784 739.698 347.996 739.698 349.388C739.698 350.204 739.578 351.008 739.338 351.8C739.122 352.592 738.714 353.432 738.114 354.32C737.538 355.184 736.686 356.168 735.558 357.272L725.946 366.704L725.226 365.696H740.85V368H723.174Z" fill="black"/>
<rect x="528.5" y="502.5" width="266" height="89" rx="29.5" fill="#40356E" fill-opacity="0.89" stroke="black"/>
<rect x="144" y="502" width="267" height="90" rx="30" fill="#24B54C"/>
<path d="M588.512 560V537.104H579.656V534.8H600.032V537.104H591.176V560H588.512ZM603.255 560V541.1H605.703V546.248L605.451 545.348C605.979 543.908 606.867 542.816 608.115 542.072C609.363 541.304 610.911 540.92 612.759 540.92V543.404C612.663 543.404 612.567 543.404 612.471 543.404C612.375 543.38 612.279 543.368 612.183 543.368C610.191 543.368 608.631 543.98 607.503 545.204C606.375 546.404 605.811 548.12 605.811 550.352V560H603.255ZM627.861 560V555.824L627.753 555.14V548.156C627.753 546.548 627.297 545.312 626.385 544.448C625.497 543.584 624.165 543.152 622.389 543.152C621.165 543.152 620.001 543.356 618.897 543.764C617.793 544.172 616.857 544.712 616.089 545.384L614.937 543.476C615.897 542.66 617.049 542.036 618.393 541.604C619.737 541.148 621.153 540.92 622.641 540.92C625.089 540.92 626.973 541.532 628.293 542.756C629.637 543.956 630.309 545.792 630.309 548.264V560H627.861ZM621.345 560.18C619.929 560.18 618.693 559.952 617.637 559.496C616.605 559.016 615.813 558.368 615.261 557.552C614.709 556.712 614.433 555.752 614.433 554.672C614.433 553.688 614.661 552.8 615.117 552.008C615.597 551.192 616.365 550.544 617.421 550.064C618.501 549.56 619.941 549.308 621.741 549.308H628.257V551.216H621.813C619.989 551.216 618.717 551.54 617.997 552.188C617.301 552.836 616.953 553.64 616.953 554.6C616.953 555.68 617.373 556.544 618.213 557.192C619.053 557.84 620.229 558.164 621.741 558.164C623.181 558.164 624.417 557.84 625.449 557.192C626.505 556.52 627.273 555.56 627.753 554.312L628.329 556.076C627.849 557.324 627.009 558.32 625.809 559.064C624.633 559.808 623.145 560.18 621.345 560.18ZM646.9 540.92C648.436 540.92 649.78 541.22 650.932 541.82C652.108 542.396 653.02 543.284 653.668 544.484C654.34 545.684 654.676 547.196 654.676 549.02V560H652.12V549.272C652.12 547.28 651.616 545.78 650.608 544.772C649.624 543.74 648.232 543.224 646.432 543.224C645.088 543.224 643.912 543.5 642.904 544.052C641.92 544.58 641.152 545.36 640.6 546.392C640.072 547.4 639.808 548.624 639.808 550.064V560H637.252V541.1H639.7V546.284L639.304 545.312C639.904 543.944 640.864 542.876 642.184 542.108C643.504 541.316 645.076 540.92 646.9 540.92ZM666.656 560.18C665.096 560.18 663.62 559.964 662.228 559.532C660.836 559.076 659.744 558.512 658.952 557.84L660.104 555.824C660.872 556.4 661.856 556.904 663.056 557.336C664.256 557.744 665.516 557.948 666.836 557.948C668.636 557.948 669.932 557.672 670.724 557.12C671.516 556.544 671.912 555.788 671.912 554.852C671.912 554.156 671.684 553.616 671.228 553.232C670.796 552.824 670.22 552.524 669.5 552.332C668.78 552.116 667.976 551.936 667.088 551.792C666.2 551.648 665.312 551.48 664.424 551.288C663.56 551.096 662.768 550.82 662.048 550.46C661.328 550.076 660.74 549.56 660.284 548.912C659.852 548.264 659.636 547.4 659.636 546.32C659.636 545.288 659.924 544.364 660.5 543.548C661.076 542.732 661.916 542.096 663.02 541.64C664.148 541.16 665.516 540.92 667.124 540.92C668.348 540.92 669.572 541.088 670.796 541.424C672.02 541.736 673.028 542.156 673.82 542.684L672.704 544.736C671.864 544.16 670.964 543.752 670.004 543.512C669.044 543.248 668.084 543.116 667.124 543.116C665.42 543.116 664.16 543.416 663.344 544.016C662.552 544.592 662.156 545.336 662.156 546.248C662.156 546.968 662.372 547.532 662.804 547.94C663.26 548.348 663.848 548.672 664.568 548.912C665.312 549.128 666.116 549.308 666.98 549.452C667.868 549.596 668.744 549.776 669.608 549.992C670.496 550.184 671.3 550.46 672.02 550.82C672.764 551.156 673.352 551.648 673.784 552.296C674.24 552.92 674.468 553.748 674.468 554.78C674.468 555.884 674.156 556.844 673.532 557.66C672.932 558.452 672.044 559.076 670.868 559.532C669.716 559.964 668.312 560.18 666.656 560.18ZM679.59 560V538.724C679.59 537.044 680.082 535.688 681.066 534.656C682.05 533.624 683.466 533.108 685.314 533.108C686.034 533.108 686.73 533.204 687.402 533.396C688.074 533.588 688.638 533.888 689.094 534.296L688.23 536.204C687.87 535.892 687.45 535.664 686.97 535.52C686.49 535.352 685.974 535.268 685.422 535.268C684.342 535.268 683.514 535.568 682.938 536.168C682.362 536.768 682.074 537.656 682.074 538.832V541.712L682.146 542.9V560H679.59ZM676.206 543.224V541.1H687.906V543.224H676.206ZM699.069 560.18C697.101 560.18 695.373 559.772 693.885 558.956C692.397 558.116 691.233 556.976 690.393 555.536C689.553 554.072 689.133 552.404 689.133 550.532C689.133 548.66 689.529 547.004 690.321 545.564C691.137 544.124 692.241 542.996 693.633 542.18C695.049 541.34 696.633 540.92 698.385 540.92C700.161 540.92 701.733 541.328 703.101 542.144C704.493 542.936 705.585 544.064 706.377 545.528C707.169 546.968 707.565 548.636 707.565 550.532C707.565 550.652 707.553 550.784 707.529 550.928C707.529 551.048 707.529 551.18 707.529 551.324H691.077V549.416H706.161L705.153 550.172C705.153 548.804 704.853 547.592 704.253 546.536C703.677 545.456 702.885 544.616 701.877 544.016C700.869 543.416 699.705 543.116 698.385 543.116C697.089 543.116 695.925 543.416 694.893 544.016C693.861 544.616 693.057 545.456 692.481 546.536C691.905 547.616 691.617 548.852 691.617 550.244V550.64C691.617 552.08 691.929 553.352 692.553 554.456C693.201 555.536 694.089 556.388 695.217 557.012C696.369 557.612 697.677 557.912 699.141 557.912C700.293 557.912 701.361 557.708 702.345 557.3C703.353 556.892 704.217 556.268 704.937 555.428L706.377 557.084C705.537 558.092 704.481 558.86 703.209 559.388C701.961 559.916 700.581 560.18 699.069 560.18ZM712.767 560V541.1H715.215V546.248L714.963 545.348C715.491 543.908 716.379 542.816 717.627 542.072C718.875 541.304 720.423 540.92 722.271 540.92V543.404C722.175 543.404 722.079 543.404 721.983 543.404C721.887 543.38 721.791 543.368 721.695 543.368C719.703 543.368 718.143 543.98 717.015 545.204C715.887 546.404 715.323 548.12 715.323 550.352V560H712.767ZM726.935 560V541.1H729.491V560H726.935ZM728.231 536.924C727.703 536.924 727.259 536.744 726.899 536.384C726.539 536.024 726.359 535.592 726.359 535.088C726.359 534.584 726.539 534.164 726.899 533.828C727.259 533.468 727.703 533.288 728.231 533.288C728.759 533.288 729.203 533.456 729.563 533.792C729.923 534.128 730.103 534.548 730.103 535.052C730.103 535.58 729.923 536.024 729.563 536.384C729.227 536.744 728.783 536.924 728.231 536.924ZM736.603 560V541.1H739.051V546.248L738.799 545.348C739.327 543.908 740.215 542.816 741.463 542.072C742.711 541.304 744.259 540.92 746.107 540.92V543.404C746.011 543.404 745.915 543.404 745.819 543.404C745.723 543.38 745.627 543.368 745.531 543.368C743.539 543.368 741.979 543.98 740.851 545.204C739.723 546.404 739.159 548.12 739.159 550.352V560H736.603Z" fill="white"/>
<path d="M185.802 560.216C183.882 560.216 182.106 559.904 180.474 559.28C178.866 558.632 177.462 557.732 176.262 556.58C175.086 555.428 174.162 554.072 173.49 552.512C172.842 550.952 172.518 549.248 172.518 547.4C172.518 545.552 172.842 543.848 173.49 542.288C174.162 540.728 175.098 539.372 176.298 538.22C177.498 537.068 178.902 536.18 180.51 535.556C182.142 534.908 183.918 534.584 185.838 534.584C187.758 534.584 189.51 534.884 191.094 535.484C192.702 536.084 194.07 536.996 195.198 538.22L193.542 539.912C192.486 538.856 191.322 538.1 190.05 537.644C188.778 537.188 187.41 536.96 185.946 536.96C184.386 536.96 182.946 537.224 181.626 537.752C180.33 538.256 179.19 538.988 178.206 539.948C177.246 540.884 176.49 541.988 175.938 543.26C175.41 544.508 175.146 545.888 175.146 547.4C175.146 548.888 175.41 550.268 175.938 551.54C176.49 552.812 177.246 553.928 178.206 554.888C179.19 555.824 180.33 556.556 181.626 557.084C182.946 557.588 184.374 557.84 185.91 557.84C187.35 557.84 188.706 557.624 189.978 557.192C191.274 556.76 192.462 556.028 193.542 554.996L195.054 557.012C193.854 558.068 192.45 558.872 190.842 559.424C189.234 559.952 187.554 560.216 185.802 560.216ZM192.498 556.688V547.4H195.054V557.012L192.498 556.688ZM210.082 560.18C208.114 560.18 206.386 559.772 204.898 558.956C203.41 558.116 202.246 556.976 201.406 555.536C200.566 554.072 200.146 552.404 200.146 550.532C200.146 548.66 200.542 547.004 201.334 545.564C202.15 544.124 203.254 542.996 204.646 542.18C206.062 541.34 207.646 540.92 209.398 540.92C211.174 540.92 212.746 541.328 214.114 542.144C215.506 542.936 216.598 544.064 217.39 545.528C218.182 546.968 218.578 548.636 218.578 550.532C218.578 550.652 218.566 550.784 218.542 550.928C218.542 551.048 218.542 551.18 218.542 551.324H202.09V549.416H217.174L216.166 550.172C216.166 548.804 215.866 547.592 215.266 546.536C214.69 545.456 213.898 544.616 212.89 544.016C211.882 543.416 210.718 543.116 209.398 543.116C208.102 543.116 206.938 543.416 205.906 544.016C204.874 544.616 204.07 545.456 203.494 546.536C202.918 547.616 202.63 548.852 202.63 550.244V550.64C202.63 552.08 202.942 553.352 203.566 554.456C204.214 555.536 205.102 556.388 206.23 557.012C207.382 557.612 208.69 557.912 210.154 557.912C211.306 557.912 212.374 557.708 213.358 557.3C214.366 556.892 215.23 556.268 215.95 555.428L217.39 557.084C216.55 558.092 215.494 558.86 214.222 559.388C212.974 559.916 211.594 560.18 210.082 560.18ZM233.429 540.92C234.965 540.92 236.309 541.22 237.461 541.82C238.637 542.396 239.549 543.284 240.197 544.484C240.869 545.684 241.205 547.196 241.205 549.02V560H238.649V549.272C238.649 547.28 238.145 545.78 237.137 544.772C236.153 543.74 234.761 543.224 232.961 543.224C231.617 543.224 230.441 543.5 229.433 544.052C228.449 544.58 227.681 545.36 227.129 546.392C226.601 547.4 226.337 548.624 226.337 550.064V560H223.781V541.1H226.229V546.284L225.833 545.312C226.433 543.944 227.393 542.876 228.713 542.108C230.033 541.316 231.605 540.92 233.429 540.92ZM256.137 560.18C254.169 560.18 252.441 559.772 250.953 558.956C249.465 558.116 248.301 556.976 247.461 555.536C246.621 554.072 246.201 552.404 246.201 550.532C246.201 548.66 246.597 547.004 247.389 545.564C248.205 544.124 249.309 542.996 250.701 542.18C252.117 541.34 253.701 540.92 255.453 540.92C257.229 540.92 258.801 541.328 260.169 542.144C261.561 542.936 262.653 544.064 263.445 545.528C264.237 546.968 264.633 548.636 264.633 550.532C264.633 550.652 264.621 550.784 264.597 550.928C264.597 551.048 264.597 551.18 264.597 551.324H248.145V549.416H263.229L262.221 550.172C262.221 548.804 261.921 547.592 261.321 546.536C260.745 545.456 259.953 544.616 258.945 544.016C257.937 543.416 256.773 543.116 255.453 543.116C254.157 543.116 252.993 543.416 251.961 544.016C250.929 544.616 250.125 545.456 249.549 546.536C248.973 547.616 248.685 548.852 248.685 550.244V550.64C248.685 552.08 248.997 553.352 249.621 554.456C250.269 555.536 251.157 556.388 252.285 557.012C253.437 557.612 254.745 557.912 256.209 557.912C257.361 557.912 258.429 557.708 259.413 557.3C260.421 556.892 261.285 556.268 262.005 555.428L263.445 557.084C262.605 558.092 261.549 558.86 260.277 559.388C259.029 559.916 257.649 560.18 256.137 560.18ZM269.835 560V541.1H272.283V546.248L272.031 545.348C272.559 543.908 273.447 542.816 274.695 542.072C275.943 541.304 277.491 540.92 279.339 540.92V543.404C279.243 543.404 279.147 543.404 279.051 543.404C278.955 543.38 278.859 543.368 278.763 543.368C276.771 543.368 275.211 543.98 274.083 545.204C272.955 546.404 272.391 548.12 272.391 550.352V560H269.835ZM294.441 560V555.824L294.333 555.14V548.156C294.333 546.548 293.877 545.312 292.965 544.448C292.077 543.584 290.745 543.152 288.969 543.152C287.745 543.152 286.581 543.356 285.477 543.764C284.373 544.172 283.437 544.712 282.669 545.384L281.517 543.476C282.477 542.66 283.629 542.036 284.973 541.604C286.317 541.148 287.733 540.92 289.221 540.92C291.669 540.92 293.553 541.532 294.873 542.756C296.217 543.956 296.889 545.792 296.889 548.264V560H294.441ZM287.925 560.18C286.509 560.18 285.273 559.952 284.217 559.496C283.185 559.016 282.393 558.368 281.841 557.552C281.289 556.712 281.013 555.752 281.013 554.672C281.013 553.688 281.241 552.8 281.697 552.008C282.177 551.192 282.945 550.544 284.001 550.064C285.081 549.56 286.521 549.308 288.321 549.308H294.837V551.216H288.393C286.569 551.216 285.297 551.54 284.577 552.188C283.881 552.836 283.533 553.64 283.533 554.6C283.533 555.68 283.953 556.544 284.793 557.192C285.633 557.84 286.809 558.164 288.321 558.164C289.761 558.164 290.997 557.84 292.029 557.192C293.085 556.52 293.853 555.56 294.333 554.312L294.909 556.076C294.429 557.324 293.589 558.32 292.389 559.064C291.213 559.808 289.725 560.18 287.925 560.18ZM303.832 560V541.1H306.28V546.248L306.028 545.348C306.556 543.908 307.444 542.816 308.692 542.072C309.94 541.304 311.488 540.92 313.336 540.92V543.404C313.24 543.404 313.144 543.404 313.048 543.404C312.952 543.38 312.856 543.368 312.76 543.368C310.768 543.368 309.208 543.98 308.08 545.204C306.952 546.404 306.388 548.12 306.388 550.352V560H303.832ZM339.259 560.216C337.363 560.216 335.599 559.904 333.967 559.28C332.359 558.632 330.955 557.732 329.755 556.58C328.579 555.404 327.655 554.048 326.983 552.512C326.335 550.952 326.011 549.248 326.011 547.4C326.011 545.552 326.335 543.86 326.983 542.324C327.655 540.764 328.579 539.408 329.755 538.256C330.955 537.08 332.359 536.18 333.967 535.556C335.575 534.908 337.339 534.584 339.259 534.584C341.155 534.584 342.907 534.908 344.515 535.556C346.123 536.18 347.515 537.068 348.691 538.22C349.891 539.372 350.815 540.728 351.463 542.288C352.135 543.848 352.471 545.552 352.471 547.4C352.471 549.248 352.135 550.952 351.463 552.512C350.815 554.072 349.891 555.428 348.691 556.58C347.515 557.732 346.123 558.632 344.515 559.28C342.907 559.904 341.155 560.216 339.259 560.216ZM347.503 565.004C346.735 565.004 345.991 564.908 345.271 564.716C344.551 564.524 343.819 564.212 343.075 563.78C342.355 563.372 341.611 562.832 340.843 562.16C340.075 561.488 339.235 560.672 338.323 559.712L341.239 558.992C341.983 559.88 342.703 560.612 343.399 561.188C344.119 561.764 344.815 562.184 345.487 562.448C346.183 562.736 346.867 562.88 347.539 562.88C349.411 562.88 351.007 562.112 352.327 560.576L353.623 562.124C352.039 564.044 349.999 565.004 347.503 565.004ZM339.259 557.84C340.771 557.84 342.163 557.588 343.435 557.084C344.731 556.556 345.847 555.812 346.783 554.852C347.743 553.892 348.487 552.788 349.015 551.54C349.543 550.268 349.807 548.888 349.807 547.4C349.807 545.888 349.543 544.508 349.015 543.26C348.487 541.988 347.743 540.884 346.783 539.948C345.847 538.988 344.731 538.256 343.435 537.752C342.163 537.224 340.771 536.96 339.259 536.96C337.747 536.96 336.343 537.224 335.047 537.752C333.751 538.256 332.623 538.988 331.663 539.948C330.727 540.884 329.983 541.988 329.431 543.26C328.903 544.508 328.639 545.888 328.639 547.4C328.639 548.888 328.903 550.268 329.431 551.54C329.983 552.788 330.727 553.892 331.663 554.852C332.623 555.812 333.751 556.556 335.047 557.084C336.343 557.588 337.747 557.84 339.259 557.84ZM358.442 560V534.8H367.874C370.01 534.8 371.846 535.148 373.382 535.844C374.918 536.516 376.094 537.5 376.91 538.796C377.75 540.068 378.17 541.616 378.17 543.44C378.17 545.216 377.75 546.752 376.91 548.048C376.094 549.32 374.918 550.304 373.382 551C371.846 551.672 370.01 552.008 367.874 552.008H359.918L361.106 550.784V560H358.442ZM375.65 560L369.17 550.856H372.05L378.566 560H375.65ZM361.106 551L359.918 549.74H367.802C370.322 549.74 372.23 549.188 373.526 548.084C374.846 546.98 375.506 545.432 375.506 543.44C375.506 541.424 374.846 539.864 373.526 538.76C372.23 537.656 370.322 537.104 367.802 537.104H359.918L361.106 535.844V551Z" fill="white"/>
<line y1="135.5" x2="940" y2="135.5" stroke="black"/>
</svg>
