<svg width="49" height="56" viewBox="0 0 49 56" fill="none" xmlns="http://www.w3.org/2000/svg">
<rect width="49" height="56" rx="12" fill="#FEFBFF"/>
<rect width="49" height="56" rx="12" fill="#2A56C8" fill-opacity="0.05"/>
<path d="M24.5 28C26.71 28 28.5 26.21 28.5 24C28.5 21.79 26.71 20 24.5 20C22.29 20 20.5 21.79 20.5 24C20.5 26.21 22.29 28 24.5 28ZM24.5 30C21.83 30 16.5 31.34 16.5 34V35C16.5 35.55 16.95 36 17.5 36H31.5C32.05 36 32.5 35.55 32.5 35V34C32.5 31.34 27.17 30 24.5 30Z" fill="#1B1B1F"/>
</svg>
