<svg width="62" height="66" viewBox="0 0 62 66" fill="none" xmlns="http://www.w3.org/2000/svg">
<path d="M2.33203 63.9997V55.6663C2.33203 45.541 10.5401 37.333 20.6654 37.333H38.9987M15.6654 63.9997V53.9997M43.9987 50.6663V43.9997M43.9987 57.9997V57.333M42.332 15.6663C42.332 23.0301 36.3624 28.9997 28.9987 28.9997C21.6349 28.9997 15.6654 23.0301 15.6654 15.6663C15.6654 8.30254 21.6349 2.33301 28.9987 2.33301C36.3624 2.33301 42.332 8.30254 42.332 15.6663ZM30.0287 63.9997H57.9687C59.2077 63.9997 60.0134 62.6957 59.4594 61.5877L45.4894 33.6477C44.8754 32.4193 43.122 32.4193 42.508 33.6477L28.538 61.5877C27.984 62.6957 28.7897 63.9997 30.0287 63.9997Z" stroke="black" stroke-width="3.5" stroke-linecap="round" stroke-linejoin="round"/>
</svg>
